<!-- Generated by readme-aura https://github.com/collectioneur/readme-aura -->
<svg width="860" height="140" viewBox="0 0 860 140" xmlns="http://www.w3.org/2000/svg"><defs><clipPath id="satori_bc-id"><path x="0" y="0" width="860" height="140" d="M16,0 h828 a16,16 0 0 1 16,16 v108 a16,16 0 0 1 -16,16 h-828 a16,16 0 0 1 -16,-16 v-108 a16,16 0 0 1 16,-16"/></clipPath></defs><clipPath id="satori_cp-id"><path x="0" y="0" width="860" height="140" d="M16,0 h828 a16,16 0 0 1 16,16 v108 a16,16 0 0 1 -16,16 h-828 a16,16 0 0 1 -16,-16 v-108 a16,16 0 0 1 16,-16"/></clipPath><mask id="satori_om-id"><rect x="1" y="1" width="858" height="138" fill="#fff"/><path width="860" height="140" fill="none" stroke="#000" stroke-width="2" d="M4.686,4.686 A16,16 0 0 1 16,0 h828 a16,16 0 0 1 16,16 v108 a16,16 0 0 1 -16,16 h-828 a16,16 0 0 1 -16,-16 v-108 A16,16 0 0 1 4.686,4.686"/></mask><path x="0" y="0" width="860" height="140" fill="#08080c" d="M16,0 h828 a16,16 0 0 1 16,16 v108 a16,16 0 0 1 -16,16 h-828 a16,16 0 0 1 -16,-16 v-108 a16,16 0 0 1 16,-16"/><path width="860" height="140" clip-path="url(#satori_bc-id)" fill="none" stroke="rgba(110,80,220,0.18)" stroke-width="2" d="M4.686,4.686 A16,16 0 0 1 16,0 h828 a16,16 0 0 1 16,16 v108 a16,16 0 0 1 -16,16 h-828 a16,16 0 0 1 -16,-16 v-108 A16,16 0 0 1 4.686,4.686"/><clipPath id="satori_cp-id-0" clip-path="url(#satori_cp-id)"><rect x="1" y="1" width="860" height="140"/></clipPath><mask id="satori_om-id-0"><rect x="1" y="1" width="860" height="140" fill="#fff" mask="url(#satori_om-id)"/></mask><svg x="1" y="1" width="860" height="140" preserveAspectRatio="none" clip-path="url(#satori_cp-id-0)" mask="url(#satori_om-id-0)"><defs><radialGradient id="g1" cx="50%" cy="50%" r="50%"><stop offset="0%" stop-color="rgba(110,20,210,0.65)"></stop><stop offset="45%" stop-color="rgba(80,15,170,0.28)"></stop><stop offset="70%" stop-color="rgba(80,15,170,0)"></stop></radialGradient><radialGradient id="g2" cx="50%" cy="50%" r="50%"><stop offset="0%" stop-color="rgba(40,70,255,0.55)"></stop><stop offset="45%" stop-color="rgba(20,50,200,0.22)"></stop><stop offset="70%" stop-color="rgba(20,50,200,0)"></stop></radialGradient><radialGradient id="g3" cx="50%" cy="50%" r="50%"><stop offset="0%" stop-color="rgba(0,140,255,0.42)"></stop><stop offset="70%" stop-color="rgba(0,140,255,0)"></stop></radialGradient><radialGradient id="g4" cx="50%" cy="50%" r="50%"><stop offset="0%" stop-color="rgba(0,195,235,0.30)"></stop><stop offset="70%" stop-color="rgba(0,195,235,0)"></stop></radialGradient><radialGradient id="g5" cx="50%" cy="50%" r="50%"><stop offset="0%" stop-color="rgba(100,30,210,0.40)"></stop><stop offset="70%" stop-color="rgba(100,30,210,0)"></stop></radialGradient></defs><ellipse id="glow-1" cx="710" cy="150" rx="210" ry="150" fill="url(#g1)"></ellipse><ellipse id="glow-2" cx="550" cy="140" rx="190" ry="140" fill="url(#g2)"></ellipse><ellipse id="glow-3" cx="400" cy="130" rx="170" ry="130" fill="url(#g3)"></ellipse><ellipse id="glow-4" cx="250" cy="140" rx="150" ry="120" fill="url(#g4)"></ellipse><ellipse id="glow-5" cx="100" cy="150" rx="130" ry="110" fill="url(#g5)"></ellipse><style>

          @keyframes float-slow {
            0%, 100% { transform: translateX(0px); opacity: 0.8; }
            50% { transform: translateX(350px); opacity: 1.2; }
          }
          @keyframes float-medium {
            0%, 100% { transform: translateX(0px); opacity: 0.7; }
            50% { transform: translateX(-250px); opacity: 1.1; }
          }
          @keyframes float-fast {
            0%, 100% { transform: translateX(0px); opacity: 0.9; }
            50% { transform: translateX(200px); opacity: 0.6; }
          }
          @keyframes float-diagonal {
            0%, 100% { transform: translate(0px, 0px); opacity: 0.75; }
            50% { transform: translate(120px, 30px); opacity: 1.0; }
          }
          @keyframes float-wave {
            0%, 100% { transform: translateX(0px); opacity: 0.65; }
            33% { transform: translateX(-160px); opacity: 0.9; }
            66% { transform: translateX(80px); opacity: 1.0; }
          }
          @keyframes float-pulse {
            0%, 100% { transform: scale(1); opacity: 0.8; }
            50% { transform: scale(1.3); opacity: 0.4; }
          }
          #glow-1 { animation: float-slow 8s ease-in-out infinite; }
          #glow-2 { animation: float-medium 12s ease-in-out infinite; }
          #glow-3 { animation: float-fast 9s ease-in-out infinite; }
          #glow-4 { animation: float-diagonal 10s ease-in-out infinite; }
          #glow-5 { animation: float-wave 14s ease-in-out infinite; }
        
</style>
</svg><mask id="satori_om-id-0-0"><rect x="1" y="1" width="0" height="140" fill="#fff" mask="url(#satori_om-id)"/></mask><mask id="satori_om-id-0-0-0"><rect x="1" y="1" width="0" height="140" fill="#fff" mask="url(#satori_om-id)"/></mask><mask id="satori_om-id-0-0-0-0"><rect x="1" y="1" width="0" height="140" fill="#fff" mask="url(#satori_om-id)"/></mask><mask id="satori_om-id-0-0-0-1"><rect x="1" y="1" width="0" height="140" fill="#fff" mask="url(#satori_om-id)"/></mask><mask id="satori_om-id-0-0-0-2"><rect x="1" y="1" width="0" height="140" fill="#fff" mask="url(#satori_om-id)"/></mask><mask id="satori_om-id-0-0-1"><rect x="1" y="1" width="0" height="140" fill="#fff" mask="url(#satori_om-id)"/></mask><mask id="satori_om-id-0-0-1-0"><rect x="1" y="1" width="0" height="140" fill="#fff" mask="url(#satori_om-id)"/></mask><mask id="satori_om-id-0-0-1-1"><rect x="1" y="1" width="0" height="140" fill="#fff" mask="url(#satori_om-id)"/></mask><mask id="satori_om-id-0-0-1-2"><rect x="1" y="1" width="0" height="140" fill="#fff" mask="url(#satori_om-id)"/></mask><mask id="satori_om-id-0-0-2"><rect x="1" y="1" width="0" height="140" fill="#fff" mask="url(#satori_om-id)"/></mask><mask id="satori_om-id-0-0-2-0"><rect x="1" y="1" width="0" height="140" fill="#fff" mask="url(#satori_om-id)"/></mask><mask id="satori_om-id-0-0-2-1"><rect x="1" y="1" width="0" height="140" fill="#fff" mask="url(#satori_om-id)"/></mask><mask id="satori_om-id-0-0-3"><rect x="1" y="1" width="0" height="140" fill="#fff" mask="url(#satori_om-id)"/></mask><mask id="satori_om-id-0-0-3-0"><rect x="1" y="1" width="0" height="140" fill="#fff" mask="url(#satori_om-id)"/></mask><mask id="satori_om-id-0-0-3-1"><rect x="1" y="1" width="0" height="140" fill="#fff" mask="url(#satori_om-id)"/></mask><mask id="satori_om-id-0-0-4"><rect x="1" y="1" width="0" height="140" fill="#fff" mask="url(#satori_om-id)"/></mask><mask id="satori_om-id-0-0-4-0"><rect x="1" y="1" width="0" height="140" fill="#fff" mask="url(#satori_om-id)"/></mask><mask id="satori_om-id-0-0-4-1"><rect x="1" y="1" width="0" height="140" fill="#fff" mask="url(#satori_om-id)"/></mask><mask id="satori_om-id-0-1"><rect x="1" y="1" width="0" height="140" fill="#fff" mask="url(#satori_om-id)"/></mask><mask id="satori_om-id-0-2"><rect x="1" y="1" width="0" height="140" fill="#fff" mask="url(#satori_om-id)"/></mask><mask id="satori_om-id-0-3"><rect x="1" y="1" width="0" height="140" fill="#fff" mask="url(#satori_om-id)"/></mask><mask id="satori_om-id-0-4"><rect x="1" y="1" width="0" height="140" fill="#fff" mask="url(#satori_om-id)"/></mask><mask id="satori_om-id-0-5"><rect x="1" y="1" width="0" height="140" fill="#fff" mask="url(#satori_om-id)"/></mask><defs><clipPath id="satori_bc-id-1" clip-path="url(#satori_cp-id)"><rect x="1" y="32" width="275" height="77"/></clipPath></defs><mask id="satori_om-id-1"><rect x="1" y="32" width="274" height="77" fill="#fff" mask="url(#satori_om-id)"/><path width="275" height="77" fill="none" stroke="#000" stroke-width="2" d="M276,32 A0,0 0 0 1 276,32 v77 A0,0 0 0 1 276,109"/></mask><path width="275" height="77" clip-path="url(#satori_bc-id-1)" fill="none" stroke="rgba(255,255,255,0.06)" stroke-width="2" d="M276,32 A0,0 0 0 1 276,32 v77 A0,0 0 0 1 276,109"/><mask id="satori_om-id-1-0"><rect x="120" y="48" width="36" height="28" fill="#fff" mask="url(#satori_om-id)"/></mask><g mask="url(#satori_om-id)" clip-path="url(#satori_cp-id)"><path fill="#a78bfa" d="M129.0 72.3L129.0 72.3Q126.8 72.3 125.1 71.5Q123.4 70.8 122.4 69.4Q121.4 68.0 121.4 66.3L121.4 66.3L125.6 66.3Q125.6 67.1 126.0 67.6Q126.5 68.2 127.3 68.5Q128.1 68.8 129.0 68.8L129.0 68.8Q130.0 68.8 130.8 68.5Q131.6 68.1 132.0 67.5Q132.4 66.9 132.4 66.0L132.4 66.0Q132.4 65.2 132.0 64.5Q131.5 63.9 130.7 63.5Q129.8 63.2 128.6 63.2L128.6 63.2L126.8 63.2L126.8 60.1L128.6 60.1Q129.6 60.1 130.4 59.7Q131.1 59.4 131.6 58.8Q132.0 58.2 132.0 57.3L132.0 57.3Q132.0 56.5 131.6 55.9Q131.3 55.4 130.6 55.0Q129.9 54.7 129.1 54.7L129.1 54.7Q128.2 54.7 127.4 55.0Q126.7 55.3 126.2 55.9Q125.8 56.5 125.8 57.3L125.8 57.3L121.8 57.3Q121.8 55.5 122.7 54.2Q123.7 52.9 125.4 52.1Q127.0 51.4 129.1 51.4L129.1 51.4Q131.2 51.4 132.7 52.1Q134.3 52.9 135.2 54.2Q136.1 55.5 136.1 57.1L136.1 57.1Q136.1 58.8 135.0 59.9Q133.9 61.1 132.2 61.4L132.2 61.4L132.2 61.6Q133.7 61.7 134.7 62.4Q135.8 63.0 136.3 64.0Q136.8 65.0 136.8 66.3L136.8 66.3Q136.8 68.0 135.8 69.4Q134.8 70.7 133.0 71.5Q131.3 72.3 129.0 72.3ZM154.2 72L139.8 72L139.8 69.0L147.0 62.2Q147.9 61.3 148.6 60.6Q149.2 59.9 149.5 59.2Q149.9 58.5 149.9 57.6L149.9 57.6Q149.9 56.7 149.4 56.1Q149.0 55.4 148.3 55.0Q147.6 54.7 146.7 54.7L146.7 54.7Q145.8 54.7 145.0 55.1Q144.3 55.5 144.0 56.2Q143.6 56.9 143.6 57.9L143.6 57.9L139.6 57.9Q139.6 55.9 140.5 54.4Q141.4 53.0 143.0 52.2Q144.6 51.4 146.7 51.4L146.7 51.4Q148.9 51.4 150.5 52.1Q152.1 52.9 153.0 54.3Q153.9 55.6 153.9 57.4L153.9 57.4Q153.9 58.5 153.5 59.6Q153.0 60.7 151.9 62.1Q150.7 63.5 148.6 65.4L148.6 65.4L145.6 68.4L145.6 68.6L154.2 68.6L154.2 72Z "/></g><mask id="satori_om-id-1-1"><rect x="119" y="81" width="39" height="12" fill="#fff" mask="url(#satori_om-id)"/></mask><g mask="url(#satori_om-id)" clip-path="url(#satori_cp-id)"><path fill="rgba(200,195,225,0.45)" d="M121.1 91L119.7 91L119.7 83.7L122.5 83.7Q123.3 83.7 123.9 84.0Q124.5 84.3 124.8 84.8Q125.1 85.4 125.1 86.1Q125.1 86.8 124.8 87.3Q124.5 87.9 123.9 88.1L123.9 88.1Q123.8 88.1 123.8 88.2L123.8 88.2L125.4 91L123.7 91L122.3 88.4L121.1 88.4L121.1 91ZM121.1 85.0L121.1 87.2L122.2 87.2Q122.7 87.2 123.0 87.1Q123.3 86.9 123.4 86.7Q123.6 86.5 123.6 86.1L123.6 86.1Q123.6 85.7 123.4 85.5Q123.3 85.2 123.0 85.1Q122.7 85.0 122.2 85.0L122.2 85.0L121.1 85.0ZM132.1 91L127.2 91L127.2 83.7L132.1 83.7L132.1 85.0L128.7 85.0L128.7 86.7L131.8 86.7L131.8 87.9L128.7 87.9L128.7 89.8L132.1 89.8L132.1 91ZM135.8 91L134.3 91L134.3 83.7L137.1 83.7Q138.0 83.7 138.5 84.0Q139.1 84.4 139.4 84.9Q139.7 85.5 139.7 86.2L139.7 86.2Q139.7 86.9 139.4 87.5Q139.1 88.0 138.5 88.3Q137.9 88.6 137.1 88.6L137.1 88.6L135.8 88.6L135.8 91ZM135.8 85.0L135.8 87.4L136.9 87.4Q137.3 87.4 137.6 87.3Q137.9 87.1 138.1 86.8Q138.2 86.5 138.2 86.2Q138.2 85.8 138.1 85.5Q137.9 85.3 137.6 85.1Q137.3 85.0 136.9 85.0L136.9 85.0L135.8 85.0ZM145.0 91.1L145.0 91.1Q144.0 91.1 143.2 90.7Q142.5 90.2 142.0 89.4Q141.6 88.5 141.6 87.4L141.6 87.4Q141.6 86.2 142.0 85.3Q142.5 84.5 143.2 84.1Q144.0 83.6 145.0 83.6L145.0 83.6Q145.9 83.6 146.7 84.1Q147.5 84.5 147.9 85.3Q148.4 86.2 148.4 87.4L148.4 87.4Q148.4 88.5 147.9 89.4Q147.5 90.2 146.7 90.7Q145.9 91.1 145.0 91.1ZM145.0 89.8L145.0 89.8Q145.5 89.8 146.0 89.5Q146.4 89.2 146.6 88.7Q146.9 88.1 146.9 87.4L146.9 87.4Q146.9 86.6 146.6 86.0Q146.4 85.5 146.0 85.2Q145.5 85.0 145.0 85.0L145.0 85.0Q144.4 85.0 144.0 85.2Q143.6 85.5 143.3 86.0Q143.1 86.6 143.1 87.4L143.1 87.4Q143.1 88.1 143.3 88.7Q143.6 89.2 144.0 89.5Q144.4 89.8 145.0 89.8ZM153.2 91.1L153.2 91.1Q152.3 91.1 151.6 90.8Q151.0 90.6 150.6 90.0Q150.3 89.5 150.2 88.7L150.2 88.7L151.7 88.7Q151.7 89.1 151.9 89.4Q152.1 89.6 152.4 89.7Q152.7 89.8 153.1 89.8L153.1 89.8Q153.5 89.8 153.8 89.7Q154.1 89.6 154.3 89.4Q154.5 89.2 154.5 88.9L154.5 88.9Q154.5 88.7 154.3 88.5Q154.2 88.3 153.9 88.2Q153.6 88.1 153.2 88.0L153.2 88.0L152.4 87.8Q151.5 87.6 151.0 87.1Q150.4 86.6 150.4 85.8L150.4 85.8Q150.4 85.2 150.8 84.7Q151.1 84.2 151.8 83.9Q152.4 83.6 153.2 83.6L153.2 83.6Q154.0 83.6 154.6 83.9Q155.2 84.2 155.5 84.7Q155.9 85.2 155.9 85.8L155.9 85.8L154.4 85.8Q154.4 85.4 154.0 85.1Q153.7 84.9 153.2 84.9L153.2 84.9Q152.8 84.9 152.5 85.0Q152.2 85.1 152.1 85.3Q152.0 85.5 152.0 85.7L152.0 85.7Q152.0 86.0 152.1 86.2Q152.3 86.3 152.6 86.5Q152.8 86.6 153.1 86.6L153.1 86.6L153.8 86.8Q154.2 86.9 154.6 87.1Q155.0 87.3 155.3 87.5Q155.6 87.8 155.8 88.1Q156.0 88.5 156.0 88.9L156.0 88.9Q156.0 89.6 155.6 90.1Q155.3 90.6 154.7 90.8Q154.0 91.1 153.2 91.1Z "/></g><defs><clipPath id="satori_bc-id-2" clip-path="url(#satori_cp-id)"><rect x="276" y="32" width="291" height="77"/></clipPath></defs><mask id="satori_om-id-2"><rect x="276" y="32" width="290" height="77" fill="#fff" mask="url(#satori_om-id)"/><path width="291" height="77" fill="none" stroke="#000" stroke-width="2" d="M567,32 A0,0 0 0 1 567,32 v77 A0,0 0 0 1 567,109"/></mask><path width="291" height="77" clip-path="url(#satori_bc-id-2)" fill="none" stroke="rgba(255,255,255,0.06)" stroke-width="2" d="M567,32 A0,0 0 0 1 567,32 v77 A0,0 0 0 1 567,109"/><mask id="satori_om-id-2-0"><rect x="394" y="48" width="54" height="28" fill="#fff" mask="url(#satori_om-id)"/></mask><g mask="url(#satori_om-id)" clip-path="url(#satori_cp-id)"><path fill="#f59e0b" d="M410.1 72L395.7 72L395.7 69.0L402.9 62.2Q403.8 61.3 404.5 60.6Q405.1 59.9 405.5 59.2Q405.8 58.5 405.8 57.6L405.8 57.6Q405.8 56.7 405.4 56.1Q405.0 55.4 404.3 55.0Q403.5 54.7 402.6 54.7L402.6 54.7Q401.7 54.7 401.0 55.1Q400.3 55.5 399.9 56.2Q399.5 56.9 399.5 57.9L399.5 57.9L395.5 57.9Q395.5 55.9 396.4 54.4Q397.3 53.0 398.9 52.2Q400.5 51.4 402.7 51.4L402.7 51.4Q404.8 51.4 406.4 52.1Q408.0 52.9 408.9 54.3Q409.8 55.6 409.8 57.4L409.8 57.4Q409.8 58.5 409.4 59.6Q408.9 60.7 407.8 62.1Q406.7 63.5 404.6 65.4L404.6 65.4L401.5 68.4L401.5 68.6L410.1 68.6L410.1 72ZM420.6 72.3L420.6 72.3Q418.4 72.3 416.7 71.5Q415 70.8 414.0 69.4Q413.0 68.0 413.0 66.3L413.0 66.3L417.2 66.3Q417.2 67.1 417.7 67.6Q418.1 68.2 418.9 68.5Q419.7 68.8 420.7 68.8L420.7 68.8Q421.7 68.8 422.4 68.5Q423.2 68.1 423.6 67.5Q424.1 66.9 424.1 66.0L424.1 66.0Q424.1 65.2 423.6 64.5Q423.2 63.9 422.3 63.5Q421.5 63.2 420.3 63.2L420.3 63.2L418.4 63.2L418.4 60.1L420.3 60.1Q421.3 60.1 422.0 59.7Q422.8 59.4 423.2 58.8Q423.6 58.2 423.6 57.3L423.6 57.3Q423.6 56.5 423.3 55.9Q422.9 55.4 422.2 55.0Q421.6 54.7 420.7 54.7L420.7 54.7Q419.8 54.7 419.1 55.0Q418.3 55.3 417.9 55.9Q417.4 56.5 417.4 57.3L417.4 57.3L413.4 57.3Q413.4 55.5 414.4 54.2Q415.3 52.9 417.0 52.1Q418.7 51.4 420.7 51.4L420.7 51.4Q422.8 51.4 424.4 52.1Q426.0 52.9 426.8 54.2Q427.7 55.5 427.7 57.1L427.7 57.1Q427.7 58.8 426.6 59.9Q425.6 61.1 423.9 61.4L423.9 61.4L423.9 61.6Q425.3 61.7 426.4 62.4Q427.4 63.0 427.9 64.0Q428.4 65.0 428.4 66.3L428.4 66.3Q428.4 68.0 427.4 69.4Q426.4 70.7 424.7 71.5Q422.9 72.3 420.6 72.3ZM438.3 72.3L438.3 72.3Q436.2 72.3 434.6 71.5Q432.9 70.7 432.0 69.4Q431.0 68.0 431.0 66.3L431.0 66.3L435.1 66.3Q435.1 67.1 435.5 67.7Q436.0 68.3 436.7 68.6Q437.4 69.0 438.3 69.0L438.3 69.0Q439.3 69.0 440.1 68.5Q440.9 68.0 441.3 67.2Q441.8 66.4 441.8 65.3L441.8 65.3Q441.8 64.2 441.3 63.4Q440.9 62.6 440.1 62.1Q439.3 61.6 438.2 61.6L438.2 61.6Q437.3 61.6 436.5 62.0Q435.6 62.4 435.2 63.0L435.2 63.0L431.4 62.3L432.4 51.6L444.7 51.6L444.7 55.1L435.8 55.1L435.3 60.2L435.4 60.2Q436.0 59.5 437.1 59.0Q438.1 58.5 439.4 58.5L439.4 58.5Q440.8 58.5 442.0 59.0Q443.2 59.5 444.0 60.4Q444.9 61.3 445.4 62.5Q445.8 63.8 445.8 65.2L445.8 65.2Q445.8 67.3 444.9 68.9Q443.9 70.5 442.2 71.4Q440.5 72.3 438.3 72.3Z "/></g><mask id="satori_om-id-2-1"><rect x="401" y="81" width="39" height="12" fill="#fff" mask="url(#satori_om-id)"/></mask><g mask="url(#satori_om-id)" clip-path="url(#satori_cp-id)"><path fill="rgba(200,195,225,0.45)" d="M404.3 91.1L404.3 91.1Q403.5 91.1 402.8 90.8Q402.2 90.6 401.8 90.0Q401.4 89.5 401.4 88.7L401.4 88.7L402.9 88.7Q402.9 89.1 403.1 89.4Q403.3 89.6 403.6 89.7Q403.9 89.8 404.3 89.8L404.3 89.8Q404.7 89.8 405.0 89.7Q405.3 89.6 405.5 89.4Q405.6 89.2 405.6 88.9L405.6 88.9Q405.6 88.7 405.5 88.5Q405.3 88.3 405.1 88.2Q404.8 88.1 404.4 88.0L404.4 88.0L403.6 87.8Q402.7 87.6 402.1 87.1Q401.6 86.6 401.6 85.8L401.6 85.8Q401.6 85.2 402.0 84.7Q402.3 84.2 402.9 83.9Q403.6 83.6 404.3 83.6L404.3 83.6Q405.2 83.6 405.8 83.9Q406.4 84.2 406.7 84.7Q407.0 85.2 407.0 85.8L407.0 85.8L405.6 85.8Q405.6 85.4 405.2 85.1Q404.9 84.9 404.3 84.9L404.3 84.9Q404.0 84.9 403.7 85.0Q403.4 85.1 403.3 85.3Q403.1 85.5 403.1 85.7L403.1 85.7Q403.1 86.0 403.3 86.2Q403.5 86.3 403.7 86.5Q404.0 86.6 404.3 86.6L404.3 86.6L405.0 86.8Q405.4 86.9 405.8 87.1Q406.2 87.3 406.5 87.5Q406.8 87.8 407.0 88.1Q407.1 88.5 407.1 88.9L407.1 88.9Q407.1 89.6 406.8 90.1Q406.5 90.6 405.8 90.8Q405.2 91.1 404.3 91.1ZM411.1 85.0L408.9 85.0L408.9 83.7L414.9 83.7L414.9 85.0L412.6 85.0L412.6 91L411.1 91L411.1 85.0ZM418.1 91L416.5 91L418.9 83.7L420.9 83.7L423.4 91L421.8 91L421.2 89.3L418.6 89.3L418.1 91ZM419.0 88.1L420.8 88.1L420.6 87.5Q420.4 86.8 420.2 86L420.2 86Q420.1 85.5 419.9 84.9L419.9 84.9Q419.8 85.5 419.6 86.0L419.6 86.0Q419.4 86.8 419.2 87.5L419.2 87.5L419.0 88.1ZM426.8 91L425.3 91L425.3 83.7L428.2 83.7Q429.0 83.7 429.6 84.0Q430.2 84.3 430.5 84.8Q430.8 85.4 430.8 86.1Q430.8 86.8 430.5 87.3Q430.2 87.9 429.6 88.1L429.6 88.1Q429.5 88.1 429.5 88.2L429.5 88.2L431.0 91L429.4 91L428.0 88.4L426.8 88.4L426.8 91ZM426.8 85.0L426.8 87.2L427.9 87.2Q428.4 87.2 428.7 87.1Q429.0 86.9 429.1 86.7Q429.2 86.5 429.2 86.1L429.2 86.1Q429.2 85.7 429.1 85.5Q429.0 85.2 428.7 85.1Q428.4 85.0 427.9 85.0L427.9 85.0L426.8 85.0ZM435.6 91.1L435.6 91.1Q434.7 91.1 434.1 90.8Q433.4 90.6 433.1 90.0Q432.7 89.5 432.7 88.7L432.7 88.7L434.1 88.7Q434.2 89.1 434.3 89.4Q434.5 89.6 434.8 89.7Q435.2 89.8 435.6 89.8L435.6 89.8Q436.0 89.8 436.3 89.7Q436.6 89.6 436.7 89.4Q436.9 89.2 436.9 88.9L436.9 88.9Q436.9 88.7 436.7 88.5Q436.6 88.3 436.3 88.2Q436.0 88.1 435.6 88.0L435.6 88.0L434.8 87.8Q433.9 87.6 433.4 87.1Q432.9 86.6 432.9 85.8L432.9 85.8Q432.9 85.2 433.2 84.7Q433.6 84.2 434.2 83.9Q434.8 83.6 435.6 83.6L435.6 83.6Q436.4 83.6 437.0 83.9Q437.6 84.2 437.9 84.7Q438.3 85.2 438.3 85.8L438.3 85.8L436.9 85.8Q436.8 85.4 436.5 85.1Q436.1 84.9 435.6 84.9L435.6 84.9Q435.2 84.9 434.9 85.0Q434.7 85.1 434.5 85.3Q434.4 85.5 434.4 85.7L434.4 85.7Q434.4 86.0 434.6 86.2Q434.7 86.3 435.0 86.5Q435.3 86.6 435.6 86.6L435.6 86.6L436.2 86.8Q436.7 86.9 437.1 87.1Q437.5 87.3 437.8 87.5Q438.1 87.8 438.2 88.1Q438.4 88.5 438.4 88.9L438.4 88.9Q438.4 89.6 438.1 90.1Q437.7 90.6 437.1 90.8Q436.5 91.1 435.6 91.1Z "/></g><mask id="satori_om-id-3"><rect x="567" y="32" width="292" height="77" fill="#fff" mask="url(#satori_om-id)"/></mask><mask id="satori_om-id-3-0"><rect x="689" y="48" width="48" height="28" fill="#fff" mask="url(#satori_om-id)"/></mask><g mask="url(#satori_om-id)" clip-path="url(#satori_cp-id)"><path fill="#60a5fa" d="M697.7 72.3L697.7 72.3Q695.7 72.3 694.1 71.5Q692.6 70.7 691.6 69.4Q690.7 68.0 690.5 66.3L690.5 66.3L694.6 66.3Q694.9 67.4 695.7 68.1Q696.5 68.7 697.7 68.7L697.7 68.7Q699.0 68.7 700.0 67.9Q700.9 67.1 701.4 65.6Q701.8 64.2 701.8 62.2L701.8 62.2L701.7 62.2Q701.2 63.0 700.5 63.7Q699.7 64.3 698.7 64.7Q697.7 65.0 696.6 65.0L696.6 65.0Q694.8 65.0 693.3 64.2Q691.9 63.3 691.1 61.8Q690.3 60.3 690.3 58.4L690.3 58.4Q690.3 56.4 691.2 54.8Q692.2 53.1 693.9 52.2Q695.6 51.3 697.9 51.3L697.9 51.3Q699.4 51.3 700.9 51.9Q702.3 52.4 703.4 53.5Q704.6 54.7 705.2 56.6Q705.9 58.5 705.9 61.3L705.9 61.3Q705.9 63.9 705.3 65.9Q704.8 68.0 703.7 69.4Q702.6 70.8 701.1 71.6Q699.6 72.3 697.7 72.3ZM697.8 62.0L697.8 62.0Q698.6 62.0 699.2 61.7Q699.9 61.4 700.4 60.9Q700.9 60.4 701.1 59.7Q701.4 59.1 701.4 58.3L701.4 58.3Q701.4 57.3 700.9 56.5Q700.5 55.7 699.7 55.2Q698.9 54.7 697.9 54.7L697.9 54.7Q696.9 54.7 696.1 55.1Q695.3 55.6 694.8 56.5Q694.3 57.3 694.3 58.3L694.3 58.3Q694.3 59.3 694.8 60.2Q695.3 61.0 696.0 61.5Q696.8 62.0 697.8 62.0ZM713.0 51.6L717.4 51.6L717.4 72L713.3 72L713.3 55.3L713.1 55.3L708.5 58.6L708.5 54.8L713.0 51.6ZM735.4 72L721.0 72L721.0 69.0L728.2 62.2Q729.1 61.3 729.7 60.6Q730.4 59.9 730.7 59.2Q731.0 58.5 731.0 57.6L731.0 57.6Q731.0 56.7 730.6 56.1Q730.2 55.4 729.5 55.0Q728.8 54.7 727.9 54.7L727.9 54.7Q726.9 54.7 726.2 55.1Q725.5 55.5 725.1 56.2Q724.8 56.9 724.8 57.9L724.8 57.9L720.8 57.9Q720.8 55.9 721.7 54.4Q722.6 53.0 724.2 52.2Q725.8 51.4 727.9 51.4L727.9 51.4Q730.1 51.4 731.7 52.1Q733.3 52.9 734.2 54.3Q735.1 55.6 735.1 57.4L735.1 57.4Q735.1 58.5 734.6 59.6Q734.2 60.7 733.1 62.1Q731.9 63.5 729.8 65.4L729.8 65.4L726.7 68.4L726.7 68.6L735.4 68.6L735.4 72Z "/></g><mask id="satori_om-id-3-1"><rect x="685" y="81" width="57" height="12" fill="#fff" mask="url(#satori_om-id)"/></mask><g mask="url(#satori_om-id)" clip-path="url(#satori_cp-id)"><path fill="rgba(200,195,225,0.45)" d="M688.8 91.1L688.8 91.1Q687.9 91.1 687.1 90.7Q686.3 90.2 685.9 89.4Q685.5 88.5 685.5 87.4L685.5 87.4Q685.5 86.2 685.9 85.3Q686.3 84.5 687.1 84.1Q687.9 83.6 688.8 83.6L688.8 83.6Q689.5 83.6 690.0 83.8Q690.5 84.0 690.9 84.3Q691.4 84.6 691.6 85.1Q691.9 85.6 692.0 86.2L692.0 86.2L690.5 86.2Q690.4 85.9 690.3 85.7Q690.1 85.4 689.9 85.3Q689.7 85.1 689.4 85.0Q689.2 85.0 688.9 85.0L688.9 85.0Q688.3 85.0 687.9 85.2Q687.4 85.5 687.2 86.1Q687.0 86.6 687.0 87.4L687.0 87.4Q687.0 88.2 687.2 88.7Q687.5 89.2 687.9 89.5Q688.3 89.8 688.9 89.8L688.9 89.8Q689.2 89.8 689.4 89.7Q689.7 89.6 689.9 89.4Q690.1 89.3 690.3 89.0Q690.4 88.8 690.5 88.5L690.5 88.5L692.0 88.5Q691.9 89.0 691.7 89.5Q691.4 89.9 691.0 90.3Q690.6 90.7 690.1 90.9Q689.5 91.1 688.8 91.1ZM697.3 91.1L697.3 91.1Q696.3 91.1 695.5 90.7Q694.8 90.2 694.3 89.4Q693.9 88.5 693.9 87.4L693.9 87.4Q693.9 86.2 694.3 85.3Q694.8 84.5 695.5 84.1Q696.3 83.6 697.3 83.6L697.3 83.6Q698.2 83.6 699.0 84.1Q699.8 84.5 700.2 85.3Q700.6 86.2 700.6 87.4L700.6 87.4Q700.6 88.5 700.2 89.4Q699.8 90.2 699.0 90.7Q698.2 91.1 697.3 91.1ZM697.3 89.8L697.3 89.8Q697.8 89.8 698.2 89.5Q698.7 89.2 698.9 88.7Q699.1 88.1 699.1 87.4L699.1 87.4Q699.1 86.6 698.9 86.0Q698.7 85.5 698.2 85.2Q697.8 85.0 697.3 85.0L697.3 85.0Q696.7 85.0 696.3 85.2Q695.8 85.5 695.6 86.0Q695.4 86.6 695.4 87.4L695.4 87.4Q695.4 88.1 695.6 88.7Q695.8 89.2 696.3 89.5Q696.7 89.8 697.3 89.8ZM704.2 91L702.8 91L702.8 83.7L705.0 83.7L706.2 87.1Q706.3 87.3 706.4 87.7Q706.5 88.0 706.6 88.5L706.6 88.5Q706.7 88.9 706.8 89.3L706.8 89.3Q706.9 88.9 706.9 88.5L706.9 88.5Q707.0 88.1 707.1 87.7Q707.2 87.3 707.3 87.1L707.3 87.1L708.5 83.7L710.8 83.7L710.8 91L709.3 91L709.3 87.6Q709.3 87.3 709.3 87.0Q709.3 86.6 709.3 86.2Q709.3 85.8 709.3 85.4L709.3 85.4Q709.3 85.2 709.3 85.0L709.3 85.0Q709.3 85.2 709.2 85.4L709.2 85.4Q709.1 85.9 709.0 86.3Q708.9 86.7 708.8 87.0Q708.7 87.3 708.6 87.6L708.6 87.6L707.4 91L706.1 91L704.9 87.6Q704.8 87.3 704.7 87.0Q704.6 86.7 704.5 86.3Q704.4 85.9 704.3 85.4L704.3 85.4Q704.2 85.2 704.2 85.1L704.2 85.1Q704.2 85.2 704.2 85.4L704.2 85.4Q704.2 85.8 704.2 86.2Q704.2 86.6 704.2 87.0Q704.2 87.3 704.2 87.6L704.2 87.6L704.2 91ZM714.6 91L713.1 91L713.1 83.7L715.4 83.7L716.5 87.1Q716.6 87.3 716.7 87.7Q716.8 88.0 716.9 88.5L716.9 88.5Q717.0 88.9 717.1 89.3L717.1 89.3Q717.2 88.9 717.3 88.5L717.3 88.5Q717.4 88.1 717.5 87.7Q717.6 87.3 717.6 87.1L717.6 87.1L718.8 83.7L721.1 83.7L721.1 91L719.6 91L719.6 87.6Q719.6 87.3 719.6 87.0Q719.6 86.6 719.6 86.2Q719.6 85.8 719.6 85.4L719.6 85.4Q719.6 85.2 719.6 85.0L719.6 85.0Q719.6 85.2 719.5 85.4L719.5 85.4Q719.4 85.9 719.3 86.3Q719.2 86.7 719.1 87.0Q719.0 87.3 718.9 87.6L718.9 87.6L717.7 91L716.5 91L715.2 87.6Q715.2 87.3 715.1 87.0Q714.9 86.7 714.8 86.3Q714.7 85.9 714.6 85.4L714.6 85.4Q714.6 85.2 714.5 85.1L714.5 85.1Q714.5 85.2 714.5 85.4L714.5 85.4Q714.5 85.8 714.5 86.2Q714.5 86.6 714.6 87.0Q714.6 87.3 714.6 87.6L714.6 87.6L714.6 91ZM723.4 83.7L724.9 83.7L724.9 91L723.4 91L723.4 83.7ZM729.1 85.0L726.9 85.0L726.9 83.7L732.9 83.7L732.9 85.0L730.6 85.0L730.6 91L729.1 91L729.1 85.0ZM737.5 91.1L737.5 91.1Q736.7 91.1 736.0 90.8Q735.4 90.6 735.0 90.0Q734.7 89.5 734.6 88.7L734.6 88.7L736.1 88.7Q736.1 89.1 736.3 89.4Q736.5 89.6 736.8 89.7Q737.1 89.8 737.5 89.8L737.5 89.8Q737.9 89.8 738.2 89.7Q738.5 89.6 738.7 89.4Q738.9 89.2 738.9 88.9L738.9 88.9Q738.9 88.7 738.7 88.5Q738.6 88.3 738.3 88.2Q738.0 88.1 737.6 88.0L737.6 88.0L736.8 87.8Q735.9 87.6 735.4 87.1Q734.8 86.6 734.8 85.8L734.8 85.8Q734.8 85.2 735.2 84.7Q735.5 84.2 736.2 83.9Q736.8 83.6 737.6 83.6L737.6 83.6Q738.4 83.6 739.0 83.9Q739.6 84.2 739.9 84.7Q740.2 85.2 740.3 85.8L740.3 85.8L738.8 85.8Q738.8 85.4 738.4 85.1Q738.1 84.9 737.5 84.9L737.5 84.9Q737.2 84.9 736.9 85.0Q736.6 85.1 736.5 85.3Q736.4 85.5 736.4 85.7L736.4 85.7Q736.4 86.0 736.5 86.2Q736.7 86.3 736.9 86.5Q737.2 86.6 737.5 86.6L737.5 86.6L738.2 86.8Q738.6 86.9 739.0 87.1Q739.4 87.3 739.7 87.5Q740.0 87.8 740.2 88.1Q740.4 88.5 740.4 88.9L740.4 88.9Q740.4 89.6 740.0 90.1Q739.7 90.6 739.1 90.8Q738.4 91.1 737.5 91.1Z "/></g></svg>