<!-- Generated by readme-aura https://github.com/collectioneur/readme-aura -->
<svg width="860" height="140" viewBox="0 0 860 140" xmlns="http://www.w3.org/2000/svg"><defs><clipPath id="satori_bc-id"><path x="0" y="0" width="860" height="140" d="M16,0 h828 a16,16 0 0 1 16,16 v108 a16,16 0 0 1 -16,16 h-828 a16,16 0 0 1 -16,-16 v-108 a16,16 0 0 1 16,-16"/></clipPath></defs><clipPath id="satori_cp-id"><path x="0" y="0" width="860" height="140" d="M16,0 h828 a16,16 0 0 1 16,16 v108 a16,16 0 0 1 -16,16 h-828 a16,16 0 0 1 -16,-16 v-108 a16,16 0 0 1 16,-16"/></clipPath><mask id="satori_om-id"><rect x="1" y="1" width="858" height="138" fill="#fff"/><path width="860" height="140" fill="none" stroke="#000" stroke-width="2" d="M4.686,4.686 A16,16 0 0 1 16,0 h828 a16,16 0 0 1 16,16 v108 a16,16 0 0 1 -16,16 h-828 a16,16 0 0 1 -16,-16 v-108 A16,16 0 0 1 4.686,4.686"/></mask><path x="0" y="0" width="860" height="140" fill="#08080c" d="M16,0 h828 a16,16 0 0 1 16,16 v108 a16,16 0 0 1 -16,16 h-828 a16,16 0 0 1 -16,-16 v-108 a16,16 0 0 1 16,-16"/><path width="860" height="140" clip-path="url(#satori_bc-id)" fill="none" stroke="rgba(110,80,220,0.18)" stroke-width="2" d="M4.686,4.686 A16,16 0 0 1 16,0 h828 a16,16 0 0 1 16,16 v108 a16,16 0 0 1 -16,16 h-828 a16,16 0 0 1 -16,-16 v-108 A16,16 0 0 1 4.686,4.686"/><clipPath id="satori_cp-id-0" clip-path="url(#satori_cp-id)"><rect x="1" y="1" width="860" height="140"/></clipPath><mask id="satori_om-id-0"><rect x="1" y="1" width="860" height="140" fill="#fff" mask="url(#satori_om-id)"/></mask><svg x="1" y="1" width="860" height="140" preserveAspectRatio="none" clip-path="url(#satori_cp-id-0)" mask="url(#satori_om-id-0)"><defs><radialGradient id="g1" cx="50%" cy="50%" r="50%"><stop offset="0%" stop-color="rgba(110,20,210,0.65)"></stop><stop offset="45%" stop-color="rgba(80,15,170,0.28)"></stop><stop offset="70%" stop-color="rgba(80,15,170,0)"></stop></radialGradient><radialGradient id="g2" cx="50%" cy="50%" r="50%"><stop offset="0%" stop-color="rgba(40,70,255,0.55)"></stop><stop offset="45%" stop-color="rgba(20,50,200,0.22)"></stop><stop offset="70%" stop-color="rgba(20,50,200,0)"></stop></radialGradient><radialGradient id="g3" cx="50%" cy="50%" r="50%"><stop offset="0%" stop-color="rgba(0,140,255,0.42)"></stop><stop offset="70%" stop-color="rgba(0,140,255,0)"></stop></radialGradient><radialGradient id="g4" cx="50%" cy="50%" r="50%"><stop offset="0%" stop-color="rgba(0,195,235,0.30)"></stop><stop offset="70%" stop-color="rgba(0,195,235,0)"></stop></radialGradient><radialGradient id="g5" cx="50%" cy="50%" r="50%"><stop offset="0%" stop-color="rgba(100,30,210,0.40)"></stop><stop offset="70%" stop-color="rgba(100,30,210,0)"></stop></radialGradient></defs><ellipse id="glow-1" cx="710" cy="150" rx="210" ry="150" fill="url(#g1)"></ellipse><ellipse id="glow-2" cx="550" cy="140" rx="190" ry="140" fill="url(#g2)"></ellipse><ellipse id="glow-3" cx="400" cy="130" rx="170" ry="130" fill="url(#g3)"></ellipse><ellipse id="glow-4" cx="250" cy="140" rx="150" ry="120" fill="url(#g4)"></ellipse><ellipse id="glow-5" cx="100" cy="150" rx="130" ry="110" fill="url(#g5)"></ellipse><style>

          @keyframes float-slow {
            0%, 100% { transform: translateX(0px); opacity: 0.8; }
            50% { transform: translateX(350px); opacity: 1.2; }
          }
          @keyframes float-medium {
            0%, 100% { transform: translateX(0px); opacity: 0.7; }
            50% { transform: translateX(-250px); opacity: 1.1; }
          }
          @keyframes float-fast {
            0%, 100% { transform: translateX(0px); opacity: 0.9; }
            50% { transform: translateX(200px); opacity: 0.6; }
          }
          @keyframes float-diagonal {
            0%, 100% { transform: translate(0px, 0px); opacity: 0.75; }
            50% { transform: translate(120px, 30px); opacity: 1.0; }
          }
          @keyframes float-wave {
            0%, 100% { transform: translateX(0px); opacity: 0.65; }
            33% { transform: translateX(-160px); opacity: 0.9; }
            66% { transform: translateX(80px); opacity: 1.0; }
          }
          @keyframes float-pulse {
            0%, 100% { transform: scale(1); opacity: 0.8; }
            50% { transform: scale(1.3); opacity: 0.4; }
          }
          #glow-1 { animation: float-slow 8s ease-in-out infinite; }
          #glow-2 { animation: float-medium 12s ease-in-out infinite; }
          #glow-3 { animation: float-fast 9s ease-in-out infinite; }
          #glow-4 { animation: float-diagonal 10s ease-in-out infinite; }
          #glow-5 { animation: float-wave 14s ease-in-out infinite; }
        
</style>
</svg><mask id="satori_om-id-0-0"><rect x="1" y="1" width="0" height="140" fill="#fff" mask="url(#satori_om-id)"/></mask><mask id="satori_om-id-0-0-0"><rect x="1" y="1" width="0" height="140" fill="#fff" mask="url(#satori_om-id)"/></mask><mask id="satori_om-id-0-0-0-0"><rect x="1" y="1" width="0" height="140" fill="#fff" mask="url(#satori_om-id)"/></mask><mask id="satori_om-id-0-0-0-1"><rect x="1" y="1" width="0" height="140" fill="#fff" mask="url(#satori_om-id)"/></mask><mask id="satori_om-id-0-0-0-2"><rect x="1" y="1" width="0" height="140" fill="#fff" mask="url(#satori_om-id)"/></mask><mask id="satori_om-id-0-0-1"><rect x="1" y="1" width="0" height="140" fill="#fff" mask="url(#satori_om-id)"/></mask><mask id="satori_om-id-0-0-1-0"><rect x="1" y="1" width="0" height="140" fill="#fff" mask="url(#satori_om-id)"/></mask><mask id="satori_om-id-0-0-1-1"><rect x="1" y="1" width="0" height="140" fill="#fff" mask="url(#satori_om-id)"/></mask><mask id="satori_om-id-0-0-1-2"><rect x="1" y="1" width="0" height="140" fill="#fff" mask="url(#satori_om-id)"/></mask><mask id="satori_om-id-0-0-2"><rect x="1" y="1" width="0" height="140" fill="#fff" mask="url(#satori_om-id)"/></mask><mask id="satori_om-id-0-0-2-0"><rect x="1" y="1" width="0" height="140" fill="#fff" mask="url(#satori_om-id)"/></mask><mask id="satori_om-id-0-0-2-1"><rect x="1" y="1" width="0" height="140" fill="#fff" mask="url(#satori_om-id)"/></mask><mask id="satori_om-id-0-0-3"><rect x="1" y="1" width="0" height="140" fill="#fff" mask="url(#satori_om-id)"/></mask><mask id="satori_om-id-0-0-3-0"><rect x="1" y="1" width="0" height="140" fill="#fff" mask="url(#satori_om-id)"/></mask><mask id="satori_om-id-0-0-3-1"><rect x="1" y="1" width="0" height="140" fill="#fff" mask="url(#satori_om-id)"/></mask><mask id="satori_om-id-0-0-4"><rect x="1" y="1" width="0" height="140" fill="#fff" mask="url(#satori_om-id)"/></mask><mask id="satori_om-id-0-0-4-0"><rect x="1" y="1" width="0" height="140" fill="#fff" mask="url(#satori_om-id)"/></mask><mask id="satori_om-id-0-0-4-1"><rect x="1" y="1" width="0" height="140" fill="#fff" mask="url(#satori_om-id)"/></mask><mask id="satori_om-id-0-1"><rect x="1" y="1" width="0" height="140" fill="#fff" mask="url(#satori_om-id)"/></mask><mask id="satori_om-id-0-2"><rect x="1" y="1" width="0" height="140" fill="#fff" mask="url(#satori_om-id)"/></mask><mask id="satori_om-id-0-3"><rect x="1" y="1" width="0" height="140" fill="#fff" mask="url(#satori_om-id)"/></mask><mask id="satori_om-id-0-4"><rect x="1" y="1" width="0" height="140" fill="#fff" mask="url(#satori_om-id)"/></mask><mask id="satori_om-id-0-5"><rect x="1" y="1" width="0" height="140" fill="#fff" mask="url(#satori_om-id)"/></mask><defs><clipPath id="satori_bc-id-1" clip-path="url(#satori_cp-id)"><rect x="1" y="32" width="277" height="77"/></clipPath></defs><mask id="satori_om-id-1"><rect x="1" y="32" width="276" height="77" fill="#fff" mask="url(#satori_om-id)"/><path width="277" height="77" fill="none" stroke="#000" stroke-width="2" d="M278,32 A0,0 0 0 1 278,32 v77 A0,0 0 0 1 278,109"/></mask><path width="277" height="77" clip-path="url(#satori_bc-id-1)" fill="none" stroke="rgba(255,255,255,0.06)" stroke-width="2" d="M278,32 A0,0 0 0 1 278,32 v77 A0,0 0 0 1 278,109"/><mask id="satori_om-id-1-0"><rect x="121" y="48" width="37" height="28" fill="#fff" mask="url(#satori_om-id)"/></mask><g mask="url(#satori_om-id)" clip-path="url(#satori_cp-id)"><path fill="#a78bfa" d="M130.0 72.3L130.0 72.3Q127.8 72.3 126.1 71.5Q124.4 70.8 123.4 69.4Q122.4 68.0 122.4 66.3L122.4 66.3L126.6 66.3Q126.6 67.1 127.0 67.6Q127.5 68.2 128.3 68.5Q129.1 68.8 130.0 68.8L130.0 68.8Q131.0 68.8 131.8 68.5Q132.6 68.1 133.0 67.5Q133.4 66.9 133.4 66.0L133.4 66.0Q133.4 65.2 133.0 64.5Q132.5 63.9 131.7 63.5Q130.8 63.2 129.6 63.2L129.6 63.2L127.8 63.2L127.8 60.1L129.6 60.1Q130.6 60.1 131.4 59.7Q132.1 59.4 132.6 58.8Q133.0 58.2 133.0 57.3L133.0 57.3Q133.0 56.5 132.6 55.9Q132.3 55.4 131.6 55.0Q130.9 54.7 130.1 54.7L130.1 54.7Q129.2 54.7 128.4 55.0Q127.7 55.3 127.2 55.9Q126.8 56.5 126.8 57.3L126.8 57.3L122.8 57.3Q122.8 55.5 123.7 54.2Q124.7 52.9 126.4 52.1Q128.0 51.4 130.1 51.4L130.1 51.4Q132.2 51.4 133.7 52.1Q135.3 52.9 136.2 54.2Q137.1 55.5 137.1 57.1L137.1 57.1Q137.1 58.8 136.0 59.9Q134.9 61.1 133.2 61.4L133.2 61.4L133.2 61.6Q134.7 61.7 135.7 62.4Q136.8 63.0 137.3 64.0Q137.8 65.0 137.8 66.3L137.8 66.3Q137.8 68.0 136.8 69.4Q135.8 70.7 134.0 71.5Q132.3 72.3 130.0 72.3ZM148.5 72.3L148.5 72.3Q145.9 72.3 144.1 71.0Q142.3 69.8 141.3 67.5Q140.4 65.1 140.4 61.8L140.4 61.8Q140.4 58.5 141.3 56.2Q142.3 53.8 144.1 52.6Q145.9 51.4 148.5 51.4L148.5 51.4Q151.1 51.4 152.9 52.6Q154.7 53.9 155.7 56.2Q156.7 58.5 156.7 61.8L156.7 61.8Q156.7 65.1 155.7 67.5Q154.7 69.8 152.9 71.0Q151.1 72.3 148.5 72.3ZM148.5 68.8L148.5 68.8Q149.8 68.8 150.6 68.0Q151.5 67.2 152.0 65.6Q152.4 64.1 152.4 61.8L152.4 61.8Q152.4 59.6 152.0 58.0Q151.5 56.4 150.6 55.6Q149.8 54.8 148.5 54.8L148.5 54.8Q147.3 54.8 146.4 55.6Q145.5 56.5 145.1 58.0Q144.6 59.6 144.6 61.8L144.6 61.8Q144.6 64.1 145.1 65.6Q145.5 67.2 146.4 68.0Q147.3 68.8 148.5 68.8Z "/></g><mask id="satori_om-id-1-1"><rect x="120" y="81" width="39" height="12" fill="#fff" mask="url(#satori_om-id)"/></mask><g mask="url(#satori_om-id)" clip-path="url(#satori_cp-id)"><path fill="rgba(200,195,225,0.45)" d="M122.1 91L120.7 91L120.7 83.7L123.5 83.7Q124.3 83.7 124.9 84.0Q125.5 84.3 125.8 84.8Q126.1 85.4 126.1 86.1Q126.1 86.8 125.8 87.3Q125.5 87.9 124.9 88.1L124.9 88.1Q124.8 88.1 124.8 88.2L124.8 88.2L126.4 91L124.7 91L123.3 88.4L122.1 88.4L122.1 91ZM122.1 85.0L122.1 87.2L123.2 87.2Q123.7 87.2 124.0 87.1Q124.3 86.9 124.4 86.7Q124.6 86.5 124.6 86.1L124.6 86.1Q124.6 85.7 124.4 85.5Q124.3 85.2 124.0 85.1Q123.7 85.0 123.2 85.0L123.2 85.0L122.1 85.0ZM133.1 91L128.2 91L128.2 83.7L133.1 83.7L133.1 85.0L129.7 85.0L129.7 86.7L132.8 86.7L132.8 87.9L129.7 87.9L129.7 89.8L133.1 89.8L133.1 91ZM136.8 91L135.3 91L135.3 83.7L138.1 83.7Q139.0 83.7 139.5 84.0Q140.1 84.4 140.4 84.9Q140.7 85.5 140.7 86.2L140.7 86.2Q140.7 86.9 140.4 87.5Q140.1 88.0 139.5 88.3Q138.9 88.6 138.1 88.6L138.1 88.6L136.8 88.6L136.8 91ZM136.8 85.0L136.8 87.4L137.9 87.4Q138.3 87.4 138.6 87.3Q138.9 87.1 139.1 86.8Q139.2 86.5 139.2 86.2Q139.2 85.8 139.1 85.5Q138.9 85.3 138.6 85.1Q138.3 85.0 137.9 85.0L137.9 85.0L136.8 85.0ZM146.0 91.1L146.0 91.1Q145.0 91.1 144.2 90.7Q143.5 90.2 143.0 89.4Q142.6 88.5 142.6 87.4L142.6 87.4Q142.6 86.2 143.0 85.3Q143.5 84.5 144.2 84.1Q145.0 83.6 146.0 83.6L146.0 83.6Q146.9 83.6 147.7 84.1Q148.5 84.5 148.9 85.3Q149.4 86.2 149.4 87.4L149.4 87.4Q149.4 88.5 148.9 89.4Q148.5 90.2 147.7 90.7Q146.9 91.1 146.0 91.1ZM146.0 89.8L146.0 89.8Q146.5 89.8 147.0 89.5Q147.4 89.2 147.6 88.7Q147.9 88.1 147.9 87.4L147.9 87.4Q147.9 86.6 147.6 86.0Q147.4 85.5 147.0 85.2Q146.5 85.0 146.0 85.0L146.0 85.0Q145.4 85.0 145.0 85.2Q144.6 85.5 144.3 86.0Q144.1 86.6 144.1 87.4L144.1 87.4Q144.1 88.1 144.3 88.7Q144.6 89.2 145.0 89.5Q145.4 89.8 146.0 89.8ZM154.2 91.1L154.2 91.1Q153.3 91.1 152.6 90.8Q152.0 90.6 151.6 90.0Q151.3 89.5 151.2 88.7L151.2 88.7L152.7 88.7Q152.7 89.1 152.9 89.4Q153.1 89.6 153.4 89.7Q153.7 89.8 154.1 89.8L154.1 89.8Q154.5 89.8 154.8 89.7Q155.1 89.6 155.3 89.4Q155.5 89.2 155.5 88.9L155.5 88.9Q155.5 88.7 155.3 88.5Q155.2 88.3 154.9 88.2Q154.6 88.1 154.2 88.0L154.2 88.0L153.4 87.8Q152.5 87.6 152.0 87.1Q151.4 86.6 151.4 85.8L151.4 85.8Q151.4 85.2 151.8 84.7Q152.1 84.2 152.8 83.9Q153.4 83.6 154.2 83.6L154.2 83.6Q155.0 83.6 155.6 83.9Q156.2 84.2 156.5 84.7Q156.9 85.2 156.9 85.8L156.9 85.8L155.4 85.8Q155.4 85.4 155.0 85.1Q154.7 84.9 154.2 84.9L154.2 84.9Q153.8 84.9 153.5 85.0Q153.2 85.1 153.1 85.3Q153.0 85.5 153.0 85.7L153.0 85.7Q153.0 86.0 153.1 86.2Q153.3 86.3 153.6 86.5Q153.8 86.6 154.1 86.6L154.1 86.6L154.8 86.8Q155.2 86.9 155.6 87.1Q156.0 87.3 156.3 87.5Q156.6 87.8 156.8 88.1Q157.0 88.5 157.0 88.9L157.0 88.9Q157.0 89.6 156.6 90.1Q156.3 90.6 155.7 90.8Q155.0 91.1 154.2 91.1Z "/></g><defs><clipPath id="satori_bc-id-2" clip-path="url(#satori_cp-id)"><rect x="278" y="32" width="278" height="77"/></clipPath></defs><mask id="satori_om-id-2"><rect x="278" y="32" width="277" height="77" fill="#fff" mask="url(#satori_om-id)"/><path width="278" height="77" fill="none" stroke="#000" stroke-width="2" d="M556,32 A0,0 0 0 1 556,32 v77 A0,0 0 0 1 556,109"/></mask><path width="278" height="77" clip-path="url(#satori_bc-id-2)" fill="none" stroke="rgba(255,255,255,0.06)" stroke-width="2" d="M556,32 A0,0 0 0 1 556,32 v77 A0,0 0 0 1 556,109"/><mask id="satori_om-id-2-0"><rect x="398" y="48" width="36" height="28" fill="#fff" mask="url(#satori_om-id)"/></mask><g mask="url(#satori_om-id)" clip-path="url(#satori_cp-id)"><path fill="#f59e0b" d="M406.6 72.3L406.6 72.3Q404.5 72.3 402.9 71.5Q401.2 70.7 400.3 69.4Q399.3 68.0 399.3 66.3L399.3 66.3L403.3 66.3Q403.4 67.1 403.8 67.7Q404.3 68.3 405 68.6Q405.7 69.0 406.6 69.0L406.6 69.0Q407.6 69.0 408.4 68.5Q409.2 68.0 409.6 67.2Q410.1 66.4 410.1 65.3L410.1 65.3Q410.1 64.2 409.6 63.4Q409.2 62.6 408.4 62.1Q407.6 61.6 406.5 61.6L406.5 61.6Q405.6 61.6 404.8 62.0Q403.9 62.4 403.5 63.0L403.5 63.0L399.7 62.3L400.7 51.6L413.0 51.6L413.0 55.1L404.1 55.1L403.6 60.2L403.7 60.2Q404.3 59.5 405.3 59.0Q406.4 58.5 407.7 58.5L407.7 58.5Q409.1 58.5 410.3 59.0Q411.5 59.5 412.3 60.4Q413.2 61.3 413.7 62.5Q414.1 63.8 414.1 65.2L414.1 65.2Q414.1 67.3 413.2 68.9Q412.2 70.5 410.5 71.4Q408.8 72.3 406.6 72.3ZM424.8 72.3L424.8 72.3Q423.2 72.3 421.8 71.8Q420.3 71.2 419.2 70.1Q418.0 68.9 417.4 67.0Q416.7 65.1 416.7 62.3L416.7 62.3Q416.7 59.7 417.3 57.7Q417.9 55.7 418.9 54.3Q420.0 52.8 421.5 52.1Q423.0 51.4 424.9 51.4L424.9 51.4Q426.9 51.4 428.5 52.1Q430.0 52.9 431.0 54.3Q431.9 55.6 432.1 57.3L432.1 57.3L428.0 57.3Q427.8 56.2 426.9 55.6Q426.1 55.0 424.9 55.0L424.9 55.0Q423.6 55.0 422.7 55.7Q421.7 56.5 421.3 58.0Q420.8 59.4 420.8 61.5L420.8 61.5L420.9 61.5Q421.4 60.6 422.2 59.9Q423.0 59.3 423.9 59.0Q424.9 58.6 426.1 58.6L426.1 58.6Q427.9 58.6 429.3 59.5Q430.7 60.3 431.5 61.8Q432.3 63.3 432.3 65.2L432.3 65.2Q432.3 67.3 431.4 68.9Q430.4 70.5 428.7 71.4Q427.0 72.3 424.8 72.3ZM424.7 69.0L424.7 69.0Q425.8 69.0 426.5 68.5Q427.3 68.0 427.8 67.2Q428.3 66.3 428.3 65.3L428.3 65.3Q428.3 64.3 427.8 63.5Q427.4 62.6 426.6 62.1Q425.8 61.7 424.8 61.7L424.8 61.7Q424.0 61.7 423.4 62.0Q422.7 62.2 422.2 62.7Q421.8 63.3 421.5 63.9Q421.2 64.6 421.2 65.3L421.2 65.3Q421.2 66.3 421.7 67.1Q422.1 68.0 422.9 68.5Q423.7 69.0 424.7 69.0Z "/></g><mask id="satori_om-id-2-1"><rect x="397" y="81" width="39" height="12" fill="#fff" mask="url(#satori_om-id)"/></mask><g mask="url(#satori_om-id)" clip-path="url(#satori_cp-id)"><path fill="rgba(200,195,225,0.45)" d="M400.3 91.1L400.3 91.1Q399.5 91.1 398.8 90.8Q398.2 90.6 397.8 90.0Q397.4 89.5 397.4 88.7L397.4 88.7L398.9 88.7Q398.9 89.1 399.1 89.4Q399.3 89.6 399.6 89.7Q399.9 89.8 400.3 89.8L400.3 89.8Q400.7 89.8 401.0 89.7Q401.3 89.6 401.5 89.4Q401.6 89.2 401.6 88.9L401.6 88.9Q401.6 88.7 401.5 88.5Q401.3 88.3 401.1 88.2Q400.8 88.1 400.4 88.0L400.4 88.0L399.6 87.8Q398.7 87.6 398.1 87.1Q397.6 86.6 397.6 85.8L397.6 85.8Q397.6 85.2 398.0 84.7Q398.3 84.2 398.9 83.9Q399.6 83.6 400.3 83.6L400.3 83.6Q401.2 83.6 401.8 83.9Q402.4 84.2 402.7 84.7Q403.0 85.2 403.0 85.8L403.0 85.8L401.6 85.8Q401.6 85.4 401.2 85.1Q400.9 84.9 400.3 84.9L400.3 84.9Q400.0 84.9 399.7 85.0Q399.4 85.1 399.3 85.3Q399.1 85.5 399.1 85.7L399.1 85.7Q399.1 86.0 399.3 86.2Q399.5 86.3 399.7 86.5Q400.0 86.6 400.3 86.6L400.3 86.6L401.0 86.8Q401.4 86.9 401.8 87.1Q402.2 87.3 402.5 87.5Q402.8 87.8 403.0 88.1Q403.1 88.5 403.1 88.9L403.1 88.9Q403.1 89.6 402.8 90.1Q402.5 90.6 401.8 90.8Q401.2 91.1 400.3 91.1ZM407.1 85.0L404.9 85.0L404.9 83.7L410.9 83.7L410.9 85.0L408.6 85.0L408.6 91L407.1 91L407.1 85.0ZM414.1 91L412.5 91L414.9 83.7L416.9 83.7L419.4 91L417.8 91L417.2 89.3L414.6 89.3L414.1 91ZM415.0 88.1L416.8 88.1L416.6 87.5Q416.4 86.8 416.2 86L416.2 86Q416.1 85.5 415.9 84.9L415.9 84.9Q415.8 85.5 415.6 86.0L415.6 86.0Q415.4 86.8 415.2 87.5L415.2 87.5L415.0 88.1ZM422.8 91L421.3 91L421.3 83.7L424.2 83.7Q425.0 83.7 425.6 84.0Q426.2 84.3 426.5 84.8Q426.8 85.4 426.8 86.1Q426.8 86.8 426.5 87.3Q426.2 87.9 425.6 88.1L425.6 88.1Q425.5 88.1 425.5 88.2L425.5 88.2L427.0 91L425.4 91L424.0 88.4L422.8 88.4L422.8 91ZM422.8 85.0L422.8 87.2L423.9 87.2Q424.4 87.2 424.7 87.1Q425.0 86.9 425.1 86.7Q425.2 86.5 425.2 86.1L425.2 86.1Q425.2 85.7 425.1 85.5Q425.0 85.2 424.7 85.1Q424.4 85.0 423.9 85.0L423.9 85.0L422.8 85.0ZM431.6 91.1L431.6 91.1Q430.7 91.1 430.1 90.8Q429.4 90.6 429.1 90.0Q428.7 89.5 428.7 88.7L428.7 88.7L430.1 88.7Q430.2 89.1 430.3 89.4Q430.5 89.6 430.8 89.7Q431.2 89.8 431.6 89.8L431.6 89.8Q432.0 89.8 432.3 89.7Q432.6 89.6 432.7 89.4Q432.9 89.2 432.9 88.9L432.9 88.9Q432.9 88.7 432.7 88.5Q432.6 88.3 432.3 88.2Q432.0 88.1 431.6 88.0L431.6 88.0L430.8 87.8Q429.9 87.6 429.4 87.1Q428.9 86.6 428.9 85.8L428.9 85.8Q428.9 85.2 429.2 84.7Q429.6 84.2 430.2 83.9Q430.8 83.6 431.6 83.6L431.6 83.6Q432.4 83.6 433.0 83.9Q433.6 84.2 433.9 84.7Q434.3 85.2 434.3 85.8L434.3 85.8L432.9 85.8Q432.8 85.4 432.5 85.1Q432.1 84.9 431.6 84.9L431.6 84.9Q431.2 84.9 430.9 85.0Q430.7 85.1 430.5 85.3Q430.4 85.5 430.4 85.7L430.4 85.7Q430.4 86.0 430.6 86.2Q430.7 86.3 431.0 86.5Q431.3 86.6 431.6 86.6L431.6 86.6L432.2 86.8Q432.7 86.9 433.1 87.1Q433.5 87.3 433.8 87.5Q434.1 87.8 434.2 88.1Q434.4 88.5 434.4 88.9L434.4 88.9Q434.4 89.6 434.1 90.1Q433.7 90.6 433.1 90.8Q432.5 91.1 431.6 91.1Z "/></g><mask id="satori_om-id-3"><rect x="556" y="32" width="303" height="77" fill="#fff" mask="url(#satori_om-id)"/></mask><mask id="satori_om-id-3-0"><rect x="675" y="48" width="66" height="28" fill="#fff" mask="url(#satori_om-id)"/></mask><g mask="url(#satori_om-id)" clip-path="url(#satori_cp-id)"><path fill="#60a5fa" d="M686.1 68.4L676.4 68.4L676.4 65.1L684.9 51.6L690.1 51.6L690.1 65.0L692.7 65.0L692.7 68.4L690.1 68.4L690.1 72L686.1 72L686.1 68.4ZM680.6 65.0L686.2 65.0L686.2 56.2L686.0 56.2L680.6 64.8L680.6 65.0ZM700.7 72L696.4 72L704.8 55.2L704.8 55.1L695.0 55.1L695.0 51.6L709.2 51.6L709.2 55.1L700.7 72ZM718.9 72.3L718.9 72.3Q716.6 72.3 714.9 71.5Q713.1 70.8 712.1 69.5Q711.1 68.2 711.1 66.5L711.1 66.5Q711.1 65.3 711.7 64.2Q712.3 63.1 713.3 62.4Q714.3 61.7 715.5 61.5L715.5 61.5L715.5 61.3Q713.9 61.0 712.9 59.8Q711.8 58.5 711.8 56.8L711.8 56.8Q711.8 55.3 712.8 54.0Q713.7 52.8 715.3 52.1Q716.9 51.4 718.9 51.4L718.9 51.4Q721.0 51.4 722.6 52.1Q724.2 52.8 725.1 54.0Q726.0 55.3 726.0 56.8L726.0 56.8Q726.0 58.5 725.0 59.8Q724.0 61.0 722.4 61.3L722.4 61.3L722.4 61.5Q723.6 61.7 724.6 62.4Q725.6 63.1 726.2 64.2Q726.8 65.3 726.8 66.5L726.8 66.5Q726.8 68.2 725.8 69.5Q724.8 70.8 723.0 71.5Q721.2 72.3 718.9 72.3ZM718.9 69.2L718.9 69.2Q720.0 69.2 720.8 68.8Q721.5 68.4 722.0 67.8Q722.4 67.1 722.4 66.2L722.4 66.2Q722.4 65.3 722.0 64.6Q721.5 63.9 720.7 63.5Q719.9 63.1 718.9 63.1L718.9 63.1Q717.9 63.1 717.1 63.5Q716.3 63.9 715.9 64.6Q715.4 65.3 715.4 66.2L715.4 66.2Q715.4 67.1 715.9 67.7Q716.3 68.4 717.1 68.8Q717.9 69.2 718.9 69.2ZM718.9 60.1L718.9 60.1Q719.8 60.1 720.5 59.7Q721.2 59.3 721.5 58.7Q721.9 58.1 721.9 57.3L721.9 57.3Q721.9 56.5 721.6 55.8Q721.2 55.2 720.5 54.9Q719.8 54.5 718.9 54.5L718.9 54.5Q718.0 54.5 717.4 54.9Q716.7 55.2 716.3 55.8Q715.9 56.5 715.9 57.3L715.9 57.3Q715.9 58.1 716.3 58.7Q716.7 59.3 717.4 59.7Q718.1 60.1 718.9 60.1ZM733.8 51.6L738.3 51.6L738.3 72L734.1 72L734.1 55.3L734.0 55.3L729.3 58.6L729.3 54.8L733.8 51.6Z "/></g><mask id="satori_om-id-3-1"><rect x="679" y="81" width="57" height="12" fill="#fff" mask="url(#satori_om-id)"/></mask><g mask="url(#satori_om-id)" clip-path="url(#satori_cp-id)"><path fill="rgba(200,195,225,0.45)" d="M682.8 91.1L682.8 91.1Q681.9 91.1 681.1 90.7Q680.3 90.2 679.9 89.4Q679.5 88.5 679.5 87.4L679.5 87.4Q679.5 86.2 679.9 85.3Q680.3 84.5 681.1 84.1Q681.9 83.6 682.8 83.6L682.8 83.6Q683.5 83.6 684.0 83.8Q684.5 84.0 684.9 84.3Q685.4 84.6 685.6 85.1Q685.9 85.6 686.0 86.2L686.0 86.2L684.5 86.2Q684.4 85.9 684.3 85.7Q684.1 85.4 683.9 85.3Q683.7 85.1 683.4 85.0Q683.2 85.0 682.9 85.0L682.9 85.0Q682.3 85.0 681.9 85.2Q681.4 85.5 681.2 86.1Q681.0 86.6 681.0 87.4L681.0 87.4Q681.0 88.2 681.2 88.7Q681.5 89.2 681.9 89.5Q682.3 89.8 682.9 89.8L682.9 89.8Q683.2 89.8 683.4 89.7Q683.7 89.6 683.9 89.4Q684.1 89.3 684.3 89.0Q684.4 88.8 684.5 88.5L684.5 88.5L686.0 88.5Q685.9 89.0 685.7 89.5Q685.4 89.9 685.0 90.3Q684.6 90.7 684.1 90.9Q683.5 91.1 682.8 91.1ZM691.3 91.1L691.3 91.1Q690.3 91.1 689.5 90.7Q688.8 90.2 688.3 89.4Q687.9 88.5 687.9 87.4L687.9 87.4Q687.9 86.2 688.3 85.3Q688.8 84.5 689.5 84.1Q690.3 83.6 691.3 83.6L691.3 83.6Q692.2 83.6 693.0 84.1Q693.8 84.5 694.2 85.3Q694.6 86.2 694.6 87.4L694.6 87.4Q694.6 88.5 694.2 89.4Q693.8 90.2 693.0 90.7Q692.2 91.1 691.3 91.1ZM691.3 89.8L691.3 89.8Q691.8 89.8 692.2 89.5Q692.7 89.2 692.9 88.7Q693.1 88.1 693.1 87.4L693.1 87.4Q693.1 86.6 692.9 86.0Q692.7 85.5 692.2 85.2Q691.8 85.0 691.3 85.0L691.3 85.0Q690.7 85.0 690.3 85.2Q689.8 85.5 689.6 86.0Q689.4 86.6 689.4 87.4L689.4 87.4Q689.4 88.1 689.6 88.7Q689.8 89.2 690.3 89.5Q690.7 89.8 691.3 89.8ZM698.2 91L696.8 91L696.8 83.7L699.0 83.7L700.2 87.1Q700.3 87.3 700.4 87.7Q700.5 88.0 700.6 88.5L700.6 88.5Q700.7 88.9 700.8 89.3L700.8 89.3Q700.9 88.9 700.9 88.5L700.9 88.5Q701.0 88.1 701.1 87.7Q701.2 87.3 701.3 87.1L701.3 87.1L702.5 83.7L704.8 83.7L704.8 91L703.3 91L703.3 87.6Q703.3 87.3 703.3 87.0Q703.3 86.6 703.3 86.2Q703.3 85.8 703.3 85.4L703.3 85.4Q703.3 85.2 703.3 85.0L703.3 85.0Q703.3 85.2 703.2 85.4L703.2 85.4Q703.1 85.9 703.0 86.3Q702.9 86.7 702.8 87.0Q702.7 87.3 702.6 87.6L702.6 87.6L701.4 91L700.1 91L698.9 87.6Q698.8 87.3 698.7 87.0Q698.6 86.7 698.5 86.3Q698.4 85.9 698.3 85.4L698.3 85.4Q698.2 85.2 698.2 85.1L698.2 85.1Q698.2 85.2 698.2 85.4L698.2 85.4Q698.2 85.8 698.2 86.2Q698.2 86.6 698.2 87.0Q698.2 87.3 698.2 87.6L698.2 87.6L698.2 91ZM708.6 91L707.1 91L707.1 83.7L709.4 83.7L710.5 87.1Q710.6 87.3 710.7 87.7Q710.8 88.0 710.9 88.5L710.9 88.5Q711.0 88.9 711.1 89.3L711.1 89.3Q711.2 88.9 711.3 88.5L711.3 88.5Q711.4 88.1 711.5 87.7Q711.6 87.3 711.6 87.1L711.6 87.1L712.8 83.7L715.1 83.7L715.1 91L713.6 91L713.6 87.6Q713.6 87.3 713.6 87.0Q713.6 86.6 713.6 86.2Q713.6 85.8 713.6 85.4L713.6 85.4Q713.6 85.2 713.6 85.0L713.6 85.0Q713.6 85.2 713.5 85.4L713.5 85.4Q713.4 85.9 713.3 86.3Q713.2 86.7 713.1 87.0Q713.0 87.3 712.9 87.6L712.9 87.6L711.7 91L710.5 91L709.2 87.6Q709.2 87.3 709.1 87.0Q708.9 86.7 708.8 86.3Q708.7 85.9 708.6 85.4L708.6 85.4Q708.6 85.2 708.5 85.1L708.5 85.1Q708.5 85.2 708.5 85.4L708.5 85.4Q708.5 85.8 708.5 86.2Q708.5 86.6 708.6 87.0Q708.6 87.3 708.6 87.6L708.6 87.6L708.6 91ZM717.4 83.7L718.9 83.7L718.9 91L717.4 91L717.4 83.7ZM723.1 85.0L720.9 85.0L720.9 83.7L726.9 83.7L726.9 85.0L724.6 85.0L724.6 91L723.1 91L723.1 85.0ZM731.5 91.1L731.5 91.1Q730.7 91.1 730.0 90.8Q729.4 90.6 729.0 90.0Q728.7 89.5 728.6 88.7L728.6 88.7L730.1 88.7Q730.1 89.1 730.3 89.4Q730.5 89.6 730.8 89.7Q731.1 89.8 731.5 89.8L731.5 89.8Q731.9 89.8 732.2 89.7Q732.5 89.6 732.7 89.4Q732.9 89.2 732.9 88.9L732.9 88.9Q732.9 88.7 732.7 88.5Q732.6 88.3 732.3 88.2Q732.0 88.1 731.6 88.0L731.6 88.0L730.8 87.8Q729.9 87.6 729.4 87.1Q728.8 86.6 728.8 85.8L728.8 85.8Q728.8 85.2 729.2 84.7Q729.5 84.2 730.2 83.9Q730.8 83.6 731.6 83.6L731.6 83.6Q732.4 83.6 733.0 83.9Q733.6 84.2 733.9 84.7Q734.2 85.2 734.3 85.8L734.3 85.8L732.8 85.8Q732.8 85.4 732.4 85.1Q732.1 84.9 731.5 84.9L731.5 84.9Q731.2 84.9 730.9 85.0Q730.6 85.1 730.5 85.3Q730.4 85.5 730.4 85.7L730.4 85.7Q730.4 86.0 730.5 86.2Q730.7 86.3 730.9 86.5Q731.2 86.6 731.5 86.6L731.5 86.6L732.2 86.8Q732.6 86.9 733.0 87.1Q733.4 87.3 733.7 87.5Q734.0 87.8 734.2 88.1Q734.4 88.5 734.4 88.9L734.4 88.9Q734.4 89.6 734.0 90.1Q733.7 90.6 733.1 90.8Q732.4 91.1 731.5 91.1Z "/></g></svg>