<!-- Generated by readme-aura https://github.com/collectioneur/readme-aura -->
<svg width="860" height="140" viewBox="0 0 860 140" xmlns="http://www.w3.org/2000/svg"><defs><clipPath id="satori_bc-id"><path x="0" y="0" width="860" height="140" d="M16,0 h828 a16,16 0 0 1 16,16 v108 a16,16 0 0 1 -16,16 h-828 a16,16 0 0 1 -16,-16 v-108 a16,16 0 0 1 16,-16"/></clipPath></defs><clipPath id="satori_cp-id"><path x="0" y="0" width="860" height="140" d="M16,0 h828 a16,16 0 0 1 16,16 v108 a16,16 0 0 1 -16,16 h-828 a16,16 0 0 1 -16,-16 v-108 a16,16 0 0 1 16,-16"/></clipPath><mask id="satori_om-id"><rect x="1" y="1" width="858" height="138" fill="#fff"/><path width="860" height="140" fill="none" stroke="#000" stroke-width="2" d="M4.686,4.686 A16,16 0 0 1 16,0 h828 a16,16 0 0 1 16,16 v108 a16,16 0 0 1 -16,16 h-828 a16,16 0 0 1 -16,-16 v-108 A16,16 0 0 1 4.686,4.686"/></mask><path x="0" y="0" width="860" height="140" fill="#08080c" d="M16,0 h828 a16,16 0 0 1 16,16 v108 a16,16 0 0 1 -16,16 h-828 a16,16 0 0 1 -16,-16 v-108 a16,16 0 0 1 16,-16"/><path width="860" height="140" clip-path="url(#satori_bc-id)" fill="none" stroke="rgba(110,80,220,0.18)" stroke-width="2" d="M4.686,4.686 A16,16 0 0 1 16,0 h828 a16,16 0 0 1 16,16 v108 a16,16 0 0 1 -16,16 h-828 a16,16 0 0 1 -16,-16 v-108 A16,16 0 0 1 4.686,4.686"/><clipPath id="satori_cp-id-0" clip-path="url(#satori_cp-id)"><rect x="1" y="1" width="860" height="140"/></clipPath><mask id="satori_om-id-0"><rect x="1" y="1" width="860" height="140" fill="#fff" mask="url(#satori_om-id)"/></mask><svg x="1" y="1" width="860" height="140" preserveAspectRatio="none" clip-path="url(#satori_cp-id-0)" mask="url(#satori_om-id-0)"><defs><radialGradient id="g1" cx="50%" cy="50%" r="50%"><stop offset="0%" stop-color="rgba(110,20,210,0.65)"></stop><stop offset="45%" stop-color="rgba(80,15,170,0.28)"></stop><stop offset="70%" stop-color="rgba(80,15,170,0)"></stop></radialGradient><radialGradient id="g2" cx="50%" cy="50%" r="50%"><stop offset="0%" stop-color="rgba(40,70,255,0.55)"></stop><stop offset="45%" stop-color="rgba(20,50,200,0.22)"></stop><stop offset="70%" stop-color="rgba(20,50,200,0)"></stop></radialGradient><radialGradient id="g3" cx="50%" cy="50%" r="50%"><stop offset="0%" stop-color="rgba(0,140,255,0.42)"></stop><stop offset="70%" stop-color="rgba(0,140,255,0)"></stop></radialGradient><radialGradient id="g4" cx="50%" cy="50%" r="50%"><stop offset="0%" stop-color="rgba(0,195,235,0.30)"></stop><stop offset="70%" stop-color="rgba(0,195,235,0)"></stop></radialGradient><radialGradient id="g5" cx="50%" cy="50%" r="50%"><stop offset="0%" stop-color="rgba(100,30,210,0.40)"></stop><stop offset="70%" stop-color="rgba(100,30,210,0)"></stop></radialGradient></defs><ellipse id="glow-1" cx="710" cy="150" rx="210" ry="150" fill="url(#g1)"></ellipse><ellipse id="glow-2" cx="550" cy="140" rx="190" ry="140" fill="url(#g2)"></ellipse><ellipse id="glow-3" cx="400" cy="130" rx="170" ry="130" fill="url(#g3)"></ellipse><ellipse id="glow-4" cx="250" cy="140" rx="150" ry="120" fill="url(#g4)"></ellipse><ellipse id="glow-5" cx="100" cy="150" rx="130" ry="110" fill="url(#g5)"></ellipse><style>

          @keyframes float-slow {
            0%, 100% { transform: translateX(0px); opacity: 0.8; }
            50% { transform: translateX(350px); opacity: 1.2; }
          }
          @keyframes float-medium {
            0%, 100% { transform: translateX(0px); opacity: 0.7; }
            50% { transform: translateX(-250px); opacity: 1.1; }
          }
          @keyframes float-fast {
            0%, 100% { transform: translateX(0px); opacity: 0.9; }
            50% { transform: translateX(200px); opacity: 0.6; }
          }
          @keyframes float-diagonal {
            0%, 100% { transform: translate(0px, 0px); opacity: 0.75; }
            50% { transform: translate(120px, 30px); opacity: 1.0; }
          }
          @keyframes float-wave {
            0%, 100% { transform: translateX(0px); opacity: 0.65; }
            33% { transform: translateX(-160px); opacity: 0.9; }
            66% { transform: translateX(80px); opacity: 1.0; }
          }
          @keyframes float-pulse {
            0%, 100% { transform: scale(1); opacity: 0.8; }
            50% { transform: scale(1.3); opacity: 0.4; }
          }
          #glow-1 { animation: float-slow 8s ease-in-out infinite; }
          #glow-2 { animation: float-medium 12s ease-in-out infinite; }
          #glow-3 { animation: float-fast 9s ease-in-out infinite; }
          #glow-4 { animation: float-diagonal 10s ease-in-out infinite; }
          #glow-5 { animation: float-wave 14s ease-in-out infinite; }
        
</style>
</svg><mask id="satori_om-id-0-0"><rect x="1" y="1" width="0" height="140" fill="#fff" mask="url(#satori_om-id)"/></mask><mask id="satori_om-id-0-0-0"><rect x="1" y="1" width="0" height="140" fill="#fff" mask="url(#satori_om-id)"/></mask><mask id="satori_om-id-0-0-0-0"><rect x="1" y="1" width="0" height="140" fill="#fff" mask="url(#satori_om-id)"/></mask><mask id="satori_om-id-0-0-0-1"><rect x="1" y="1" width="0" height="140" fill="#fff" mask="url(#satori_om-id)"/></mask><mask id="satori_om-id-0-0-0-2"><rect x="1" y="1" width="0" height="140" fill="#fff" mask="url(#satori_om-id)"/></mask><mask id="satori_om-id-0-0-1"><rect x="1" y="1" width="0" height="140" fill="#fff" mask="url(#satori_om-id)"/></mask><mask id="satori_om-id-0-0-1-0"><rect x="1" y="1" width="0" height="140" fill="#fff" mask="url(#satori_om-id)"/></mask><mask id="satori_om-id-0-0-1-1"><rect x="1" y="1" width="0" height="140" fill="#fff" mask="url(#satori_om-id)"/></mask><mask id="satori_om-id-0-0-1-2"><rect x="1" y="1" width="0" height="140" fill="#fff" mask="url(#satori_om-id)"/></mask><mask id="satori_om-id-0-0-2"><rect x="1" y="1" width="0" height="140" fill="#fff" mask="url(#satori_om-id)"/></mask><mask id="satori_om-id-0-0-2-0"><rect x="1" y="1" width="0" height="140" fill="#fff" mask="url(#satori_om-id)"/></mask><mask id="satori_om-id-0-0-2-1"><rect x="1" y="1" width="0" height="140" fill="#fff" mask="url(#satori_om-id)"/></mask><mask id="satori_om-id-0-0-3"><rect x="1" y="1" width="0" height="140" fill="#fff" mask="url(#satori_om-id)"/></mask><mask id="satori_om-id-0-0-3-0"><rect x="1" y="1" width="0" height="140" fill="#fff" mask="url(#satori_om-id)"/></mask><mask id="satori_om-id-0-0-3-1"><rect x="1" y="1" width="0" height="140" fill="#fff" mask="url(#satori_om-id)"/></mask><mask id="satori_om-id-0-0-4"><rect x="1" y="1" width="0" height="140" fill="#fff" mask="url(#satori_om-id)"/></mask><mask id="satori_om-id-0-0-4-0"><rect x="1" y="1" width="0" height="140" fill="#fff" mask="url(#satori_om-id)"/></mask><mask id="satori_om-id-0-0-4-1"><rect x="1" y="1" width="0" height="140" fill="#fff" mask="url(#satori_om-id)"/></mask><mask id="satori_om-id-0-1"><rect x="1" y="1" width="0" height="140" fill="#fff" mask="url(#satori_om-id)"/></mask><mask id="satori_om-id-0-2"><rect x="1" y="1" width="0" height="140" fill="#fff" mask="url(#satori_om-id)"/></mask><mask id="satori_om-id-0-3"><rect x="1" y="1" width="0" height="140" fill="#fff" mask="url(#satori_om-id)"/></mask><mask id="satori_om-id-0-4"><rect x="1" y="1" width="0" height="140" fill="#fff" mask="url(#satori_om-id)"/></mask><mask id="satori_om-id-0-5"><rect x="1" y="1" width="0" height="140" fill="#fff" mask="url(#satori_om-id)"/></mask><defs><clipPath id="satori_bc-id-1" clip-path="url(#satori_cp-id)"><rect x="1" y="32" width="278" height="77"/></clipPath></defs><mask id="satori_om-id-1"><rect x="1" y="32" width="277" height="77" fill="#fff" mask="url(#satori_om-id)"/><path width="278" height="77" fill="none" stroke="#000" stroke-width="2" d="M279,32 A0,0 0 0 1 279,32 v77 A0,0 0 0 1 279,109"/></mask><path width="278" height="77" clip-path="url(#satori_bc-id-1)" fill="none" stroke="rgba(255,255,255,0.06)" stroke-width="2" d="M279,32 A0,0 0 0 1 279,32 v77 A0,0 0 0 1 279,109"/><mask id="satori_om-id-1-0"><rect x="121" y="48" width="37" height="28" fill="#fff" mask="url(#satori_om-id)"/></mask><g mask="url(#satori_om-id)" clip-path="url(#satori_cp-id)"><path fill="#a78bfa" d="M130.0 72.3L130.0 72.3Q127.8 72.3 126.1 71.5Q124.4 70.8 123.4 69.4Q122.4 68.0 122.4 66.3L122.4 66.3L126.6 66.3Q126.6 67.1 127.0 67.6Q127.5 68.2 128.3 68.5Q129.1 68.8 130.0 68.8L130.0 68.8Q131.0 68.8 131.8 68.5Q132.6 68.1 133.0 67.5Q133.4 66.9 133.4 66.0L133.4 66.0Q133.4 65.2 133.0 64.5Q132.5 63.9 131.7 63.5Q130.8 63.2 129.6 63.2L129.6 63.2L127.8 63.2L127.8 60.1L129.6 60.1Q130.6 60.1 131.4 59.7Q132.1 59.4 132.6 58.8Q133.0 58.2 133.0 57.3L133.0 57.3Q133.0 56.5 132.6 55.9Q132.3 55.4 131.6 55.0Q130.9 54.7 130.1 54.7L130.1 54.7Q129.2 54.7 128.4 55.0Q127.7 55.3 127.2 55.9Q126.8 56.5 126.8 57.3L126.8 57.3L122.8 57.3Q122.8 55.5 123.7 54.2Q124.7 52.9 126.4 52.1Q128.0 51.4 130.1 51.4L130.1 51.4Q132.2 51.4 133.7 52.1Q135.3 52.9 136.2 54.2Q137.1 55.5 137.1 57.1L137.1 57.1Q137.1 58.8 136.0 59.9Q134.9 61.1 133.2 61.4L133.2 61.4L133.2 61.6Q134.7 61.7 135.7 62.4Q136.8 63.0 137.3 64.0Q137.8 65.0 137.8 66.3L137.8 66.3Q137.8 68.0 136.8 69.4Q135.8 70.7 134.0 71.5Q132.3 72.3 130.0 72.3ZM148.5 72.3L148.5 72.3Q145.9 72.3 144.1 71.0Q142.3 69.8 141.3 67.5Q140.4 65.1 140.4 61.8L140.4 61.8Q140.4 58.5 141.3 56.2Q142.3 53.8 144.1 52.6Q145.9 51.4 148.5 51.4L148.5 51.4Q151.1 51.4 152.9 52.6Q154.7 53.9 155.7 56.2Q156.7 58.5 156.7 61.8L156.7 61.8Q156.7 65.1 155.7 67.5Q154.7 69.8 152.9 71.0Q151.1 72.3 148.5 72.3ZM148.5 68.8L148.5 68.8Q149.8 68.8 150.6 68.0Q151.5 67.2 152.0 65.6Q152.4 64.1 152.4 61.8L152.4 61.8Q152.4 59.6 152.0 58.0Q151.5 56.4 150.6 55.6Q149.8 54.8 148.5 54.8L148.5 54.8Q147.3 54.8 146.4 55.6Q145.5 56.5 145.1 58.0Q144.6 59.6 144.6 61.8L144.6 61.8Q144.6 64.1 145.1 65.6Q145.5 67.2 146.4 68.0Q147.3 68.8 148.5 68.8Z "/></g><mask id="satori_om-id-1-1"><rect x="120" y="81" width="39" height="12" fill="#fff" mask="url(#satori_om-id)"/></mask><g mask="url(#satori_om-id)" clip-path="url(#satori_cp-id)"><path fill="rgba(200,195,225,0.45)" d="M122.1 91L120.7 91L120.7 83.7L123.5 83.7Q124.3 83.7 124.9 84.0Q125.5 84.3 125.8 84.8Q126.1 85.4 126.1 86.1Q126.1 86.8 125.8 87.3Q125.5 87.9 124.9 88.1L124.9 88.1Q124.8 88.1 124.8 88.2L124.8 88.2L126.4 91L124.7 91L123.3 88.4L122.1 88.4L122.1 91ZM122.1 85.0L122.1 87.2L123.2 87.2Q123.7 87.2 124.0 87.1Q124.3 86.9 124.4 86.7Q124.6 86.5 124.6 86.1L124.6 86.1Q124.6 85.7 124.4 85.5Q124.3 85.2 124.0 85.1Q123.7 85.0 123.2 85.0L123.2 85.0L122.1 85.0ZM133.1 91L128.2 91L128.2 83.7L133.1 83.7L133.1 85.0L129.7 85.0L129.7 86.7L132.8 86.7L132.8 87.9L129.7 87.9L129.7 89.8L133.1 89.8L133.1 91ZM136.8 91L135.3 91L135.3 83.7L138.1 83.7Q139.0 83.7 139.5 84.0Q140.1 84.4 140.4 84.9Q140.7 85.5 140.7 86.2L140.7 86.2Q140.7 86.9 140.4 87.5Q140.1 88.0 139.5 88.3Q138.9 88.6 138.1 88.6L138.1 88.6L136.8 88.6L136.8 91ZM136.8 85.0L136.8 87.4L137.9 87.4Q138.3 87.4 138.6 87.3Q138.9 87.1 139.1 86.8Q139.2 86.5 139.2 86.2Q139.2 85.8 139.1 85.5Q138.9 85.3 138.6 85.1Q138.3 85.0 137.9 85.0L137.9 85.0L136.8 85.0ZM146.0 91.1L146.0 91.1Q145.0 91.1 144.2 90.7Q143.5 90.2 143.0 89.4Q142.6 88.5 142.6 87.4L142.6 87.4Q142.6 86.2 143.0 85.3Q143.5 84.5 144.2 84.1Q145.0 83.6 146.0 83.6L146.0 83.6Q146.9 83.6 147.7 84.1Q148.5 84.5 148.9 85.3Q149.4 86.2 149.4 87.4L149.4 87.4Q149.4 88.5 148.9 89.4Q148.5 90.2 147.7 90.7Q146.9 91.1 146.0 91.1ZM146.0 89.8L146.0 89.8Q146.5 89.8 147.0 89.5Q147.4 89.2 147.6 88.7Q147.9 88.1 147.9 87.4L147.9 87.4Q147.9 86.6 147.6 86.0Q147.4 85.5 147.0 85.2Q146.5 85.0 146.0 85.0L146.0 85.0Q145.4 85.0 145.0 85.2Q144.6 85.5 144.3 86.0Q144.1 86.6 144.1 87.4L144.1 87.4Q144.1 88.1 144.3 88.7Q144.6 89.2 145.0 89.5Q145.4 89.8 146.0 89.8ZM154.2 91.1L154.2 91.1Q153.3 91.1 152.6 90.8Q152.0 90.6 151.6 90.0Q151.3 89.5 151.2 88.7L151.2 88.7L152.7 88.7Q152.7 89.1 152.9 89.4Q153.1 89.6 153.4 89.7Q153.7 89.8 154.1 89.8L154.1 89.8Q154.5 89.8 154.8 89.7Q155.1 89.6 155.3 89.4Q155.5 89.2 155.5 88.9L155.5 88.9Q155.5 88.7 155.3 88.5Q155.2 88.3 154.9 88.2Q154.6 88.1 154.2 88.0L154.2 88.0L153.4 87.8Q152.5 87.6 152.0 87.1Q151.4 86.6 151.4 85.8L151.4 85.8Q151.4 85.2 151.8 84.7Q152.1 84.2 152.8 83.9Q153.4 83.6 154.2 83.6L154.2 83.6Q155.0 83.6 155.6 83.9Q156.2 84.2 156.5 84.7Q156.9 85.2 156.9 85.8L156.9 85.8L155.4 85.8Q155.4 85.4 155.0 85.1Q154.7 84.9 154.2 84.9L154.2 84.9Q153.8 84.9 153.5 85.0Q153.2 85.1 153.1 85.3Q153.0 85.5 153.0 85.7L153.0 85.7Q153.0 86.0 153.1 86.2Q153.3 86.3 153.6 86.5Q153.8 86.6 154.1 86.6L154.1 86.6L154.8 86.8Q155.2 86.9 155.6 87.1Q156.0 87.3 156.3 87.5Q156.6 87.8 156.8 88.1Q157.0 88.5 157.0 88.9L157.0 88.9Q157.0 89.6 156.6 90.1Q156.3 90.6 155.7 90.8Q155.0 91.1 154.2 91.1Z "/></g><defs><clipPath id="satori_bc-id-2" clip-path="url(#satori_cp-id)"><rect x="279" y="32" width="278" height="77"/></clipPath></defs><mask id="satori_om-id-2"><rect x="279" y="32" width="277" height="77" fill="#fff" mask="url(#satori_om-id)"/><path width="278" height="77" fill="none" stroke="#000" stroke-width="2" d="M557,32 A0,0 0 0 1 557,32 v77 A0,0 0 0 1 557,109"/></mask><path width="278" height="77" clip-path="url(#satori_bc-id-2)" fill="none" stroke="rgba(255,255,255,0.06)" stroke-width="2" d="M557,32 A0,0 0 0 1 557,32 v77 A0,0 0 0 1 557,109"/><mask id="satori_om-id-2-0"><rect x="400" y="48" width="36" height="28" fill="#fff" mask="url(#satori_om-id)"/></mask><g mask="url(#satori_om-id)" clip-path="url(#satori_cp-id)"><path fill="#f59e0b" d="M408.6 72.3L408.6 72.3Q406.5 72.3 404.9 71.5Q403.2 70.7 402.3 69.4Q401.3 68.0 401.3 66.3L401.3 66.3L405.3 66.3Q405.4 67.1 405.8 67.7Q406.3 68.3 407 68.6Q407.7 69.0 408.6 69.0L408.6 69.0Q409.6 69.0 410.4 68.5Q411.2 68.0 411.6 67.2Q412.1 66.4 412.1 65.3L412.1 65.3Q412.1 64.2 411.6 63.4Q411.2 62.6 410.4 62.1Q409.6 61.6 408.5 61.6L408.5 61.6Q407.6 61.6 406.8 62.0Q405.9 62.4 405.5 63.0L405.5 63.0L401.7 62.3L402.7 51.6L415.0 51.6L415.0 55.1L406.1 55.1L405.6 60.2L405.7 60.2Q406.3 59.5 407.3 59.0Q408.4 58.5 409.7 58.5L409.7 58.5Q411.1 58.5 412.3 59.0Q413.5 59.5 414.3 60.4Q415.2 61.3 415.7 62.5Q416.1 63.8 416.1 65.2L416.1 65.2Q416.1 67.3 415.2 68.9Q414.2 70.5 412.5 71.4Q410.8 72.3 408.6 72.3ZM426.8 72.3L426.8 72.3Q425.2 72.3 423.8 71.8Q422.3 71.2 421.2 70.1Q420.0 68.9 419.4 67.0Q418.7 65.1 418.7 62.3L418.7 62.3Q418.7 59.7 419.3 57.7Q419.9 55.7 420.9 54.3Q422.0 52.8 423.5 52.1Q425.0 51.4 426.9 51.4L426.9 51.4Q428.9 51.4 430.5 52.1Q432.0 52.9 433.0 54.3Q433.9 55.6 434.1 57.3L434.1 57.3L430.0 57.3Q429.8 56.2 428.9 55.6Q428.1 55.0 426.9 55.0L426.9 55.0Q425.6 55.0 424.7 55.7Q423.7 56.5 423.3 58.0Q422.8 59.4 422.8 61.5L422.8 61.5L422.9 61.5Q423.4 60.6 424.2 59.9Q425.0 59.3 425.9 59.0Q426.9 58.6 428.1 58.6L428.1 58.6Q429.9 58.6 431.3 59.5Q432.7 60.3 433.5 61.8Q434.3 63.3 434.3 65.2L434.3 65.2Q434.3 67.3 433.4 68.9Q432.4 70.5 430.7 71.4Q429.0 72.3 426.8 72.3ZM426.7 69.0L426.7 69.0Q427.8 69.0 428.5 68.5Q429.3 68.0 429.8 67.2Q430.3 66.3 430.3 65.3L430.3 65.3Q430.3 64.3 429.8 63.5Q429.4 62.6 428.6 62.1Q427.8 61.7 426.8 61.7L426.8 61.7Q426.0 61.7 425.4 62.0Q424.7 62.2 424.2 62.7Q423.8 63.3 423.5 63.9Q423.2 64.6 423.2 65.3L423.2 65.3Q423.2 66.3 423.7 67.1Q424.1 68.0 424.9 68.5Q425.7 69.0 426.7 69.0Z "/></g><mask id="satori_om-id-2-1"><rect x="398" y="81" width="39" height="12" fill="#fff" mask="url(#satori_om-id)"/></mask><g mask="url(#satori_om-id)" clip-path="url(#satori_cp-id)"><path fill="rgba(200,195,225,0.45)" d="M401.3 91.1L401.3 91.1Q400.5 91.1 399.8 90.8Q399.2 90.6 398.8 90.0Q398.4 89.5 398.4 88.7L398.4 88.7L399.9 88.7Q399.9 89.1 400.1 89.4Q400.3 89.6 400.6 89.7Q400.9 89.8 401.3 89.8L401.3 89.8Q401.7 89.8 402.0 89.7Q402.3 89.6 402.5 89.4Q402.6 89.2 402.6 88.9L402.6 88.9Q402.6 88.7 402.5 88.5Q402.3 88.3 402.1 88.2Q401.8 88.1 401.4 88.0L401.4 88.0L400.6 87.8Q399.7 87.6 399.1 87.1Q398.6 86.6 398.6 85.8L398.6 85.8Q398.6 85.2 399.0 84.7Q399.3 84.2 399.9 83.9Q400.6 83.6 401.3 83.6L401.3 83.6Q402.2 83.6 402.8 83.9Q403.4 84.2 403.7 84.7Q404.0 85.2 404.0 85.8L404.0 85.8L402.6 85.8Q402.6 85.4 402.2 85.1Q401.9 84.9 401.3 84.9L401.3 84.9Q401.0 84.9 400.7 85.0Q400.4 85.1 400.3 85.3Q400.1 85.5 400.1 85.7L400.1 85.7Q400.1 86.0 400.3 86.2Q400.5 86.3 400.7 86.5Q401.0 86.6 401.3 86.6L401.3 86.6L402.0 86.8Q402.4 86.9 402.8 87.1Q403.2 87.3 403.5 87.5Q403.8 87.8 404.0 88.1Q404.1 88.5 404.1 88.9L404.1 88.9Q404.1 89.6 403.8 90.1Q403.5 90.6 402.8 90.8Q402.2 91.1 401.3 91.1ZM408.1 85.0L405.9 85.0L405.9 83.7L411.9 83.7L411.9 85.0L409.6 85.0L409.6 91L408.1 91L408.1 85.0ZM415.1 91L413.5 91L415.9 83.7L417.9 83.7L420.4 91L418.8 91L418.2 89.3L415.6 89.3L415.1 91ZM416.0 88.1L417.8 88.1L417.6 87.5Q417.4 86.8 417.2 86L417.2 86Q417.1 85.5 416.9 84.9L416.9 84.9Q416.8 85.5 416.6 86.0L416.6 86.0Q416.4 86.8 416.2 87.5L416.2 87.5L416.0 88.1ZM423.8 91L422.3 91L422.3 83.7L425.2 83.7Q426.0 83.7 426.6 84.0Q427.2 84.3 427.5 84.8Q427.8 85.4 427.8 86.1Q427.8 86.8 427.5 87.3Q427.2 87.9 426.6 88.1L426.6 88.1Q426.5 88.1 426.5 88.2L426.5 88.2L428.0 91L426.4 91L425.0 88.4L423.8 88.4L423.8 91ZM423.8 85.0L423.8 87.2L424.9 87.2Q425.4 87.2 425.7 87.1Q426.0 86.9 426.1 86.7Q426.2 86.5 426.2 86.1L426.2 86.1Q426.2 85.7 426.1 85.5Q426.0 85.2 425.7 85.1Q425.4 85.0 424.9 85.0L424.9 85.0L423.8 85.0ZM432.6 91.1L432.6 91.1Q431.7 91.1 431.1 90.8Q430.4 90.6 430.1 90.0Q429.7 89.5 429.7 88.7L429.7 88.7L431.1 88.7Q431.2 89.1 431.3 89.4Q431.5 89.6 431.8 89.7Q432.2 89.8 432.6 89.8L432.6 89.8Q433.0 89.8 433.3 89.7Q433.6 89.6 433.7 89.4Q433.9 89.2 433.9 88.9L433.9 88.9Q433.9 88.7 433.7 88.5Q433.6 88.3 433.3 88.2Q433.0 88.1 432.6 88.0L432.6 88.0L431.8 87.8Q430.9 87.6 430.4 87.1Q429.9 86.6 429.9 85.8L429.9 85.8Q429.9 85.2 430.2 84.7Q430.6 84.2 431.2 83.9Q431.8 83.6 432.6 83.6L432.6 83.6Q433.4 83.6 434.0 83.9Q434.6 84.2 434.9 84.7Q435.3 85.2 435.3 85.8L435.3 85.8L433.9 85.8Q433.8 85.4 433.5 85.1Q433.1 84.9 432.6 84.9L432.6 84.9Q432.2 84.9 431.9 85.0Q431.7 85.1 431.5 85.3Q431.4 85.5 431.4 85.7L431.4 85.7Q431.4 86.0 431.6 86.2Q431.7 86.3 432.0 86.5Q432.3 86.6 432.6 86.6L432.6 86.6L433.2 86.8Q433.7 86.9 434.1 87.1Q434.5 87.3 434.8 87.5Q435.1 87.8 435.2 88.1Q435.4 88.5 435.4 88.9L435.4 88.9Q435.4 89.6 435.1 90.1Q434.7 90.6 434.1 90.8Q433.5 91.1 432.6 91.1Z "/></g><mask id="satori_om-id-3"><rect x="557" y="32" width="302" height="77" fill="#fff" mask="url(#satori_om-id)"/></mask><mask id="satori_om-id-3-0"><rect x="676" y="48" width="64" height="28" fill="#fff" mask="url(#satori_om-id)"/></mask><g mask="url(#satori_om-id)" clip-path="url(#satori_cp-id)"><path fill="#60a5fa" d="M687.1 68.4L677.4 68.4L677.4 65.1L685.9 51.6L691.1 51.6L691.1 65.0L693.7 65.0L693.7 68.4L691.1 68.4L691.1 72L687.1 72L687.1 68.4ZM681.6 65.0L687.2 65.0L687.2 56.2L687.0 56.2L681.6 64.8L681.6 65.0ZM701.7 72L697.4 72L705.8 55.2L705.8 55.1L696.0 55.1L696.0 51.6L710.2 51.6L710.2 55.1L701.7 72ZM718.5 72L714.2 72L722.7 55.2L722.7 55.1L712.8 55.1L712.8 51.6L727.0 51.6L727.0 55.1L718.5 72ZM733.8 51.6L738.3 51.6L738.3 72L734.1 72L734.1 55.3L734.0 55.3L729.3 58.6L729.3 54.8L733.8 51.6Z "/></g><mask id="satori_om-id-3-1"><rect x="680" y="81" width="57" height="12" fill="#fff" mask="url(#satori_om-id)"/></mask><g mask="url(#satori_om-id)" clip-path="url(#satori_cp-id)"><path fill="rgba(200,195,225,0.45)" d="M683.8 91.1L683.8 91.1Q682.9 91.1 682.1 90.7Q681.3 90.2 680.9 89.4Q680.5 88.5 680.5 87.4L680.5 87.4Q680.5 86.2 680.9 85.3Q681.3 84.5 682.1 84.1Q682.9 83.6 683.8 83.6L683.8 83.6Q684.5 83.6 685.0 83.8Q685.5 84.0 685.9 84.3Q686.4 84.6 686.6 85.1Q686.9 85.6 687.0 86.2L687.0 86.2L685.5 86.2Q685.4 85.9 685.3 85.7Q685.1 85.4 684.9 85.3Q684.7 85.1 684.4 85.0Q684.2 85.0 683.9 85.0L683.9 85.0Q683.3 85.0 682.9 85.2Q682.4 85.5 682.2 86.1Q682.0 86.6 682.0 87.4L682.0 87.4Q682.0 88.2 682.2 88.7Q682.5 89.2 682.9 89.5Q683.3 89.8 683.9 89.8L683.9 89.8Q684.2 89.8 684.4 89.7Q684.7 89.6 684.9 89.4Q685.1 89.3 685.3 89.0Q685.4 88.8 685.5 88.5L685.5 88.5L687.0 88.5Q686.9 89.0 686.7 89.5Q686.4 89.9 686.0 90.3Q685.6 90.7 685.1 90.9Q684.5 91.1 683.8 91.1ZM692.3 91.1L692.3 91.1Q691.3 91.1 690.5 90.7Q689.8 90.2 689.3 89.4Q688.9 88.5 688.9 87.4L688.9 87.4Q688.9 86.2 689.3 85.3Q689.8 84.5 690.5 84.1Q691.3 83.6 692.3 83.6L692.3 83.6Q693.2 83.6 694.0 84.1Q694.8 84.5 695.2 85.3Q695.6 86.2 695.6 87.4L695.6 87.4Q695.6 88.5 695.2 89.4Q694.8 90.2 694.0 90.7Q693.2 91.1 692.3 91.1ZM692.3 89.8L692.3 89.8Q692.8 89.8 693.2 89.5Q693.7 89.2 693.9 88.7Q694.1 88.1 694.1 87.4L694.1 87.4Q694.1 86.6 693.9 86.0Q693.7 85.5 693.2 85.2Q692.8 85.0 692.3 85.0L692.3 85.0Q691.7 85.0 691.3 85.2Q690.8 85.5 690.6 86.0Q690.4 86.6 690.4 87.4L690.4 87.4Q690.4 88.1 690.6 88.7Q690.8 89.2 691.3 89.5Q691.7 89.8 692.3 89.8ZM699.2 91L697.8 91L697.8 83.7L700.0 83.7L701.2 87.1Q701.3 87.3 701.4 87.7Q701.5 88.0 701.6 88.5L701.6 88.5Q701.7 88.9 701.8 89.3L701.8 89.3Q701.9 88.9 701.9 88.5L701.9 88.5Q702.0 88.1 702.1 87.7Q702.2 87.3 702.3 87.1L702.3 87.1L703.5 83.7L705.8 83.7L705.8 91L704.3 91L704.3 87.6Q704.3 87.3 704.3 87.0Q704.3 86.6 704.3 86.2Q704.3 85.8 704.3 85.4L704.3 85.4Q704.3 85.2 704.3 85.0L704.3 85.0Q704.3 85.2 704.2 85.4L704.2 85.4Q704.1 85.9 704.0 86.3Q703.9 86.7 703.8 87.0Q703.7 87.3 703.6 87.6L703.6 87.6L702.4 91L701.1 91L699.9 87.6Q699.8 87.3 699.7 87.0Q699.6 86.7 699.5 86.3Q699.4 85.9 699.3 85.4L699.3 85.4Q699.2 85.2 699.2 85.1L699.2 85.1Q699.2 85.2 699.2 85.4L699.2 85.4Q699.2 85.8 699.2 86.2Q699.2 86.6 699.2 87.0Q699.2 87.3 699.2 87.6L699.2 87.6L699.2 91ZM709.6 91L708.1 91L708.1 83.7L710.4 83.7L711.5 87.1Q711.6 87.3 711.7 87.7Q711.8 88.0 711.9 88.5L711.9 88.5Q712.0 88.9 712.1 89.3L712.1 89.3Q712.2 88.9 712.3 88.5L712.3 88.5Q712.4 88.1 712.5 87.7Q712.6 87.3 712.6 87.1L712.6 87.1L713.8 83.7L716.1 83.7L716.1 91L714.6 91L714.6 87.6Q714.6 87.3 714.6 87.0Q714.6 86.6 714.6 86.2Q714.6 85.8 714.6 85.4L714.6 85.4Q714.6 85.2 714.6 85.0L714.6 85.0Q714.6 85.2 714.5 85.4L714.5 85.4Q714.4 85.9 714.3 86.3Q714.2 86.7 714.1 87.0Q714.0 87.3 713.9 87.6L713.9 87.6L712.7 91L711.5 91L710.2 87.6Q710.2 87.3 710.1 87.0Q709.9 86.7 709.8 86.3Q709.7 85.9 709.6 85.4L709.6 85.4Q709.6 85.2 709.5 85.1L709.5 85.1Q709.5 85.2 709.5 85.4L709.5 85.4Q709.5 85.8 709.5 86.2Q709.5 86.6 709.6 87.0Q709.6 87.3 709.6 87.6L709.6 87.6L709.6 91ZM718.4 83.7L719.9 83.7L719.9 91L718.4 91L718.4 83.7ZM724.1 85.0L721.9 85.0L721.9 83.7L727.9 83.7L727.9 85.0L725.6 85.0L725.6 91L724.1 91L724.1 85.0ZM732.5 91.1L732.5 91.1Q731.7 91.1 731.0 90.8Q730.4 90.6 730.0 90.0Q729.7 89.5 729.6 88.7L729.6 88.7L731.1 88.7Q731.1 89.1 731.3 89.4Q731.5 89.6 731.8 89.7Q732.1 89.8 732.5 89.8L732.5 89.8Q732.9 89.8 733.2 89.7Q733.5 89.6 733.7 89.4Q733.9 89.2 733.9 88.9L733.9 88.9Q733.9 88.7 733.7 88.5Q733.6 88.3 733.3 88.2Q733.0 88.1 732.6 88.0L732.6 88.0L731.8 87.8Q730.9 87.6 730.4 87.1Q729.8 86.6 729.8 85.8L729.8 85.8Q729.8 85.2 730.2 84.7Q730.5 84.2 731.2 83.9Q731.8 83.6 732.6 83.6L732.6 83.6Q733.4 83.6 734.0 83.9Q734.6 84.2 734.9 84.7Q735.2 85.2 735.3 85.8L735.3 85.8L733.8 85.8Q733.8 85.4 733.4 85.1Q733.1 84.9 732.5 84.9L732.5 84.9Q732.2 84.9 731.9 85.0Q731.6 85.1 731.5 85.3Q731.4 85.5 731.4 85.7L731.4 85.7Q731.4 86.0 731.5 86.2Q731.7 86.3 731.9 86.5Q732.2 86.6 732.5 86.6L732.5 86.6L733.2 86.8Q733.6 86.9 734.0 87.1Q734.4 87.3 734.7 87.5Q735.0 87.8 735.2 88.1Q735.4 88.5 735.4 88.9L735.4 88.9Q735.4 89.6 735.0 90.1Q734.7 90.6 734.1 90.8Q733.4 91.1 732.5 91.1Z "/></g></svg>